# Blender v2.79 (sub 0) OBJ File: ''
# www.blender.org
mtllib aws_Track_05_visual_track.mtl
o aws_Track_05_visual
v -20.924402 -16.101475 0.049997
v -20.794430 -13.841228 0.049998
v -23.668711 -13.509605 0.049998
v -24.185747 -15.725186 0.049997
v -27.244360 -14.630779 0.049998
v -26.244692 -12.587891 0.049998
v -29.941917 -12.914797 0.049998
v -28.519262 -11.140979 0.049998
v -32.191589 -10.665126 0.049998
v -30.417814 -9.242422 0.049998
v -33.907558 -7.967622 0.049999
v -31.864748 -6.967799 0.049999
v -35.001987 -4.908996 0.049999
v -32.786438 -4.391827 0.049999
v -35.378288 -1.647650 0.050000
v -33.118050 -1.517546 0.050000
v -35.378288 1.704950 0.050000
v -33.118050 1.574844 0.050000
v -32.786438 4.449123 0.050001
v -35.001987 4.966294 0.050001
v -33.907558 8.024918 0.050001
v -31.864746 7.025093 0.050001
v -32.191589 10.722425 0.050002
v -30.417816 9.299719 0.050002
v -29.941921 12.972094 0.050002
v -28.519264 11.198275 0.050002
v -27.244360 14.688080 0.050002
v -26.244701 12.645186 0.050002
v -24.185749 15.782481 0.050003
v -23.668715 13.566898 0.050002
v -20.924404 16.158770 0.050003
v -20.794436 13.898524 0.050002
v 12.298094 13.898524 0.050002
v 12.428062 16.158770 0.050003
v 15.172374 13.566901 0.050002
v 15.689412 15.782482 0.050003
v 18.748030 14.688076 0.050002
v 17.748356 12.645187 0.050002
v 21.445585 12.972095 0.050002
v 20.022930 11.198277 0.050002
v 23.695255 10.722430 0.050002
v 21.921482 9.299722 0.050002
v 25.411224 8.024922 0.050001
v 23.368412 7.025101 0.050001
v 26.505655 4.966292 0.050001
v 24.290100 4.449132 0.050001
v 26.881950 1.704948 0.050000
v 24.621712 1.574845 0.050000
v 26.881950 -1.647645 0.050000
v 24.621712 -1.517537 0.050000
v 24.290100 -4.391822 0.049999
v 26.505651 -4.908994 0.049999
v 25.411221 -7.967623 0.049999
v 23.368408 -6.967796 0.049999
v 23.695259 -10.665128 0.049998
v 21.921484 -9.242420 0.049998
v 21.445585 -12.914800 0.049998
v 20.022934 -11.140979 0.049998
v 18.748032 -14.630782 0.049998
v 17.748363 -12.587892 0.049998
v 15.172390 -13.509601 0.049998
v 15.689409 -15.725189 0.049997
v 12.428066 -16.101475 0.049997
v 12.298098 -13.841228 0.049998
v -3.697491 -13.841228 0.049998
v -3.697491 -16.101475 0.049997
v -4.798842 -16.101475 0.049997
v -4.798842 -13.841228 0.049998
vt -20.316526 0.611996
vt -20.112406 3.530831
vt -23.816580 4.277449
vt -24.522200 1.420351
vt -28.503429 2.839515
vt -24.524832 1.381998
vt -27.171766 5.497346
vt -31.996181 5.113496
vt -28.498529 2.848068
vt -30.124878 7.408932
vt -34.895592 8.071340
vt -31.991783 5.111951
vt -32.576534 9.908236
vt -37.094086 11.608103
vt -34.894432 8.069318
vt -34.430077 12.893741
vt -38.479549 15.609226
vt -37.095467 11.606446
vt -35.592640 16.266073
vt -38.929703 19.866693
vt -38.482925 15.607899
vt -35.985855 20.019766
vt -38.886642 24.236008
vt -38.930260 19.866297
vt -35.947067 24.050541
vt -38.885029 24.235765
vt -35.473862 27.790329
vt -38.349895 28.478758
vt -36.881683 32.449360
vt -38.351685 28.478357
vt -34.232964 31.134562
vt -34.609642 35.943237
vt -36.884964 32.449520
vt -32.312809 34.079884
vt -31.647318 38.849430
vt -34.611404 35.943993
vt -29.811075 36.530796
vt -28.107977 41.058609
vt -31.647617 38.850647
vt -26.828972 38.392227
vt -24.104433 42.454548
vt -28.105171 41.058952
vt -23.461044 39.576321
vt -19.820005 42.609211
vt -24.102715 42.444729
vt -19.687761 39.686298
vt -19.818726 42.648411
vt 23.444302 39.676205
vt 23.650366 42.617802
vt 23.648420 42.595047
vt 27.148479 38.929592
vt 27.854101 41.786716
vt 31.835337 40.367527
vt 27.856726 41.825039
vt 30.503662 37.709705
vt 35.328083 38.093510
vt 31.830425 40.358936
vt 33.456776 35.798096
vt 38.227528 35.135723
vt 35.323727 38.095108
vt 35.908432 33.298790
vt 40.425991 31.598927
vt 38.226345 35.137730
vt 37.761974 30.313282
vt 41.811478 27.597832
vt 40.427380 31.600613
vt 38.924553 26.940975
vt 42.261654 23.340363
vt 41.814919 27.599152
vt 39.317768 23.187283
vt 42.218536 18.971050
vt 42.262177 23.340752
vt 39.278965 19.156507
vt 42.216904 18.971291
vt 38.805756 15.416710
vt 41.681767 14.728298
vt 40.213593 10.757694
vt 41.683578 14.728719
vt 37.564857 12.072495
vt 37.941555 7.263783
vt 40.216858 10.757499
vt 35.644711 9.127155
vt 34.979240 4.357614
vt 37.943329 7.263033
vt 33.142979 6.676229
vt 31.439941 2.148457
vt 34.979580 4.356432
vt 30.160873 4.814801
vt 31.435408 2.157853
vt 26.792961 3.630721
vt 27.434650 0.762266
vt 23.151922 0.597810
vt 23.019672 3.520743
vt 23.170954 0.569607
vt 2.152113 3.525621
vt 2.152129 0.584409
vt -20.132629 3.540409
vt -20.325148 0.590133
vt 0.711310 0.586267
vt 0.711294 3.525604
vt 0.711310 3.525953
vt 2.152113 0.586005
vn -0.0000 -0.0000 1.0000
usemtl material_0
s 1
f 1/1/1 2/2/1 3/3/1
f 1/1/1 3/3/1 4/4/1
f 5/5/1 4/6/1 3/3/1
f 5/5/1 3/3/1 6/7/1
f 7/8/1 5/9/1 6/7/1
f 7/8/1 6/7/1 8/10/1
f 9/11/1 7/12/1 8/10/1
f 9/11/1 8/10/1 10/13/1
f 11/14/1 9/15/1 10/13/1
f 11/14/1 10/13/1 12/16/1
f 13/17/1 11/18/1 12/16/1
f 13/17/1 12/16/1 14/19/1
f 15/20/1 13/21/1 14/19/1
f 15/20/1 14/19/1 16/22/1
f 17/23/1 15/24/1 16/22/1
f 17/23/1 16/22/1 18/25/1
f 17/26/1 18/25/1 19/27/1
f 17/26/1 19/27/1 20/28/1
f 21/29/1 20/30/1 19/27/1
f 21/29/1 19/27/1 22/31/1
f 23/32/1 21/33/1 22/31/1
f 23/32/1 22/31/1 24/34/1
f 25/35/1 23/36/1 24/34/1
f 25/35/1 24/34/1 26/37/1
f 27/38/1 25/39/1 26/37/1
f 27/38/1 26/37/1 28/40/1
f 29/41/1 27/42/1 28/40/1
f 29/41/1 28/40/1 30/43/1
f 31/44/1 29/45/1 30/43/1
f 31/44/1 30/43/1 32/46/1
f 31/47/1 32/46/1 33/48/1
f 31/47/1 33/48/1 34/49/1
f 34/50/1 33/48/1 35/51/1
f 34/50/1 35/51/1 36/52/1
f 37/53/1 36/54/1 35/51/1
f 37/53/1 35/51/1 38/55/1
f 39/56/1 37/57/1 38/55/1
f 39/56/1 38/55/1 40/58/1
f 41/59/1 39/60/1 40/58/1
f 41/59/1 40/58/1 42/61/1
f 43/62/1 41/63/1 42/61/1
f 43/62/1 42/61/1 44/64/1
f 45/65/1 43/66/1 44/64/1
f 45/65/1 44/64/1 46/67/1
f 47/68/1 45/69/1 46/67/1
f 47/68/1 46/67/1 48/70/1
f 49/71/1 47/72/1 48/70/1
f 49/71/1 48/70/1 50/73/1
f 49/74/1 50/73/1 51/75/1
f 49/74/1 51/75/1 52/76/1
f 53/77/1 52/78/1 51/75/1
f 53/77/1 51/75/1 54/79/1
f 55/80/1 53/81/1 54/79/1
f 55/80/1 54/79/1 56/82/1
f 57/83/1 55/84/1 56/82/1
f 57/83/1 56/82/1 58/85/1
f 59/86/1 57/87/1 58/85/1
f 59/86/1 58/85/1 60/88/1
f 59/89/1 60/88/1 61/90/1
f 59/89/1 61/90/1 62/91/1
f 63/92/1 62/91/1 61/90/1
f 63/92/1 61/90/1 64/93/1
f 63/94/1 64/93/1 65/95/1
f 63/94/1 65/95/1 66/96/1
f 2/97/1 1/98/1 67/99/1
f 2/97/1 67/99/1 68/100/1
f 65/95/1 68/101/1 67/99/1
f 65/95/1 67/99/1 66/102/1
