# Blender v2.79 (sub 0) OBJ File: ''
# www.blender.org
mtllib aws_Track_05_visual_border.mtl
o aws_Track_05_visual
v -20.924408 -16.101475 0.049997
v -20.794437 -13.841228 0.049998
v -23.668716 -13.509605 0.049998
v -24.185753 -15.725186 0.049997
v -27.244368 -14.630779 0.049998
v -26.244699 -12.587891 0.049998
v -29.941927 -12.914797 0.049998
v -28.519270 -11.140979 0.049998
v -32.191597 -10.665126 0.049998
v -30.417822 -9.242422 0.049998
v -33.907570 -7.967622 0.049999
v -31.864758 -6.967799 0.049999
v -35.001999 -4.908996 0.049999
v -32.786446 -4.391827 0.049999
v -35.378296 -1.647650 0.050000
v -33.118057 -1.517546 0.050000
v -35.378296 1.704950 0.050000
v -33.118057 1.574844 0.050000
v -32.786446 4.449123 0.050001
v -35.001999 4.966294 0.050001
v -33.907566 8.024918 0.050001
v -31.864754 7.025093 0.050001
v -32.191601 10.722425 0.050002
v -30.417826 9.299719 0.050002
v -29.941929 12.972094 0.050002
v -28.519272 11.198275 0.050002
v -27.244368 14.688080 0.050002
v -26.244709 12.645186 0.050002
v -24.185755 15.782481 0.050003
v -23.668722 13.566898 0.050002
v -20.924410 16.158770 0.050003
v -20.794441 13.898524 0.050002
v 12.298098 13.898524 0.050002
v 12.428066 16.158770 0.050003
v 15.172379 13.566901 0.050002
v 15.689417 15.782482 0.050003
v 18.748035 14.688076 0.050002
v 17.748362 12.645187 0.050002
v 21.445591 12.972095 0.050002
v 20.022934 11.198277 0.050002
v 23.695263 10.722430 0.050002
v 21.921488 9.299722 0.050002
v 25.411232 8.024922 0.050001
v 23.368420 7.025101 0.050001
v 26.505663 4.966292 0.050001
v 24.290106 4.449132 0.050001
v 26.881958 1.704948 0.050000
v 24.621717 1.574845 0.050000
v 26.881958 -1.647645 0.050000
v 24.621717 -1.517537 0.050000
v 24.290106 -4.391822 0.049999
v 26.505659 -4.908994 0.049999
v 25.411228 -7.967623 0.049999
v 23.368414 -6.967796 0.049999
v 23.695265 -10.665128 0.049998
v 21.921490 -9.242420 0.049998
v 21.445591 -12.914800 0.049998
v 20.022940 -11.140979 0.049998
v 18.748037 -14.630782 0.049998
v 17.748369 -12.587892 0.049998
v 15.172394 -13.509601 0.049998
v 15.689413 -15.725189 0.049997
v 12.428070 -16.101475 0.049997
v 12.298101 -13.841228 0.049998
v -3.697492 -13.841228 0.049998
v -3.697492 -16.101475 0.049997
v -4.798844 -16.101475 0.049997
v -4.798844 -13.841228 0.049998
v -3.697492 -16.530024 -0.050003
v -3.697492 -16.371351 0.049997
v -4.798844 -16.371351 0.049997
v -4.798844 -16.530024 -0.050003
v -3.697492 -13.571352 0.049998
v -3.697492 -13.441032 -0.050002
v -4.798844 -13.441032 -0.050002
v -4.798844 -13.571352 0.049998
v -24.247490 -15.989730 0.049997
v -24.440983 -16.144709 -0.050003
v -21.101416 -16.530024 -0.050003
v -20.939924 -16.371351 0.049997
v -20.620516 -13.441032 -0.050002
v -23.421478 -13.117868 -0.050002
v -23.606981 -13.245062 0.049998
v -20.778919 -13.571352 0.049998
v -27.363728 -14.874701 0.049998
v -27.587370 -15.018892 -0.050002
v -25.915705 -12.225409 -0.050002
v -26.125340 -12.343967 0.049998
v -30.111792 -13.126593 0.049998
v -30.362024 -13.253871 -0.050002
v -28.118458 -10.824182 -0.050002
v -28.349403 -10.929183 0.049998
v -32.403389 -10.834998 0.049998
v -32.675793 -10.940104 -0.050002
v -29.957293 -8.985338 -0.050001
v -30.206030 -9.072549 0.049999
v -34.151482 -8.087003 0.049999
v -34.440800 -8.165522 -0.050001
v -31.358547 -6.782520 -0.050001
v -31.620844 -6.848418 0.049999
v -35.266537 -4.970747 0.049999
v -35.566639 -5.019115 -0.050001
v -32.250980 -4.288310 -0.050001
v -32.521908 -4.330077 0.049999
v -35.648174 -1.663185 0.050000
v -35.951969 -1.679554 -0.050000
v -32.574127 -1.487344 -0.050000
v -32.848183 -1.502011 0.050000
v -35.648174 1.720485 0.050000
v -35.951969 1.736853 -0.050000
v -32.574127 1.544641 -0.050000
v -32.848183 1.559309 0.050000
v -35.266537 5.028045 0.050001
v -35.566639 5.076415 -0.049999
v -32.250980 4.345606 -0.049999
v -32.521908 4.387372 0.050001
v -34.151482 8.144298 0.050001
v -34.440796 8.222817 -0.049999
v -31.358545 6.839814 -0.049999
v -31.620840 6.905713 0.050001
v -32.403393 10.892297 0.050002
v -32.675793 10.997403 -0.049998
v -29.957294 9.042635 -0.049999
v -30.206034 9.129846 0.050001
v -30.111795 13.183888 0.050002
v -30.362026 13.311167 -0.049998
v -28.118460 10.881478 -0.049998
v -28.349407 10.986479 0.050002
v -27.363728 14.932003 0.050002
v -27.587370 15.076194 -0.049998
v -25.915714 12.282704 -0.049998
v -26.125349 12.401263 0.050002
v -24.247492 16.047026 0.050003
v -24.440985 16.202003 -0.049997
v -23.421486 13.175160 -0.049998
v -23.606989 13.302355 0.050002
v -20.939928 16.428648 0.050003
v -21.101421 16.587318 -0.049997
v -20.620520 13.498327 -0.049998
v -20.778923 13.628647 0.050002
v 12.443584 16.428648 0.050003
v 12.605078 16.587318 -0.049997
v 12.124175 13.498327 -0.049998
v 12.282578 13.628647 0.050002
v 15.751151 16.047026 0.050003
v 15.944645 16.202003 -0.049997
v 14.925140 13.175164 -0.049998
v 15.110643 13.302358 0.050002
v 18.867395 14.931999 0.050002
v 19.091038 15.076190 -0.049998
v 17.419367 12.282706 -0.049998
v 17.629002 12.401264 0.050002
v 21.615459 13.183891 0.050002
v 21.865692 13.311169 -0.049998
v 19.622120 10.881480 -0.049998
v 19.853067 10.986482 0.050002
v 23.907055 10.892303 0.050002
v 24.179457 10.997410 -0.049998
v 21.460958 9.042639 -0.049999
v 21.709696 9.129849 0.050001
v 25.655146 8.144302 0.050001
v 25.944462 8.222821 -0.049999
v 22.862211 6.839822 -0.049999
v 23.124506 6.905721 0.050001
v 26.770203 5.028042 0.050001
v 27.070305 5.076411 -0.049999
v 23.754641 4.345616 -0.049999
v 24.025568 4.387383 0.050001
v 27.151833 1.720482 0.050000
v 27.455629 1.736851 -0.050000
v 24.077787 1.544643 -0.050000
v 24.351843 1.559310 0.050000
v 27.151833 -1.663180 0.050000
v 27.455629 -1.679549 -0.050000
v 24.077787 -1.487335 -0.050000
v 24.351843 -1.502002 0.050000
v 26.770197 -4.970745 0.049999
v 27.070299 -5.019114 -0.050001
v 23.754641 -4.288304 -0.050001
v 24.025568 -4.330071 0.049999
v 25.655140 -8.087004 0.049999
v 25.944458 -8.165523 -0.050001
v 22.862206 -6.782517 -0.050001
v 23.124500 -6.848416 0.049999
v 23.907057 -10.835001 0.049998
v 24.179459 -10.940107 -0.050002
v 21.460960 -8.985336 -0.050001
v 21.709698 -9.072547 0.049999
v 21.615458 -13.126595 0.049998
v 21.865688 -13.253873 -0.050002
v 19.622128 -10.824182 -0.050002
v 19.853073 -10.929183 0.049998
v 18.867397 -14.874705 0.049998
v 19.091040 -15.018896 -0.050002
v 17.419374 -12.225410 -0.050002
v 17.629009 -12.343968 0.049998
v 15.751145 -15.989733 0.049997
v 15.944639 -16.144711 -0.050003
v 14.925159 -13.117864 -0.050002
v 15.110662 -13.245057 0.049998
v 12.443587 -16.371351 0.049997
v 12.605081 -16.530024 -0.050003
v 12.124181 -13.441032 -0.050002
v 12.282584 -13.571352 0.049998
vt 0.005105 11.473040
vt 0.080199 11.473040
vt 0.080199 11.408679
vt 0.005105 11.408679
vt 0.067813 10.819633
vt 0.001432 10.819633
vt 0.001432 10.731959
vt 0.067813 10.731959
vt 0.080199 8.944358
vt 0.005105 8.944358
vt 0.005105 9.209081
vt 0.080199 9.209081
vt 0.001432 8.716737
vt 0.001432 8.267131
vt 0.067813 8.267131
vt 0.067813 8.716737
vt 0.080199 8.547111
vt 0.005105 8.547111
vt 0.001432 8.022441
vt 0.067813 8.022441
vt 0.080199 8.148904
vt 0.005105 8.148904
vt 0.001432 7.738440
vt 0.067813 7.738440
vt 0.080199 7.738315
vt 0.005105 7.738315
vt 0.001432 7.437783
vt 0.067813 7.437783
vt 0.080199 7.312166
vt 0.005105 7.312166
vt 0.001432 7.118246
vt 0.067813 7.118246
vt 0.080199 6.866318
vt 0.005105 6.866318
vt 0.001432 6.776953
vt 0.067813 6.776953
vt 0.080199 6.400926
vt 0.005105 6.400926
vt 0.001432 6.404150
vt 0.067813 6.404150
vt 0.080199 5.914798
vt 0.005105 5.914798
vt 0.001432 5.987182
vt 0.067813 5.987182
vt 0.080199 5.414631
vt 0.005105 5.414631
vt 0.001432 5.551569
vt 0.067813 5.551569
vt 0.080199 4.910465
vt 0.005105 4.910465
vt 0.001432 5.127770
vt 0.067813 5.127770
vt 0.080199 4.404998
vt 0.005105 4.404998
vt 0.001432 4.708097
vt 0.067813 4.708097
vt 0.080199 3.899380
vt 0.005105 3.899380
vt 0.001432 4.283559
vt 0.067813 4.283559
vt 0.080199 3.390754
vt 0.005105 3.390754
vt 0.001432 3.853049
vt 0.067813 3.853049
vt 0.080199 2.876144
vt 0.005105 2.876144
vt 0.001432 3.415432
vt 0.067813 3.415432
vt 0.080199 2.357281
vt 0.016365 2.357281
vt 0.001432 2.962511
vt 0.067813 2.962511
vt 0.080199 -1.295711
vt 0.016365 -1.295711
vt 0.001432 -0.703623
vt 0.067813 -0.703623
vt 0.080199 -1.623794
vt 0.005105 -1.623794
vt 0.001432 -1.019281
vt 0.067813 -1.019281
vt 0.080199 -2.231091
vt 0.005105 -2.231091
vt 0.001432 -1.559448
vt 0.067813 -1.559448
vt 0.080199 -2.834986
vt 0.005105 -2.834986
vt 0.001432 -2.083463
vt 0.067818 -2.083463
vt 0.080199 -3.432508
vt 0.005105 -3.432508
vt 0.001432 -2.604497
vt 0.067818 -2.604497
vt 0.080199 -4.026129
vt 0.005105 -4.026129
vt 0.001432 -3.124022
vt 0.067818 -3.124022
vt 0.080199 -4.619214
vt 0.005105 -4.619214
vt 0.001432 -3.644079
vt 0.067818 -3.644079
vt 0.080199 -5.209068
vt 0.005105 -5.209068
vt 0.001432 -4.175780
vt 0.067818 -4.175780
vt 0.080199 -5.794092
vt 0.005105 -5.794092
vt 0.001432 -4.731822
vt 0.067818 -4.731822
vt 0.080199 -6.366619
vt 0.005105 -6.366619
vt 0.001432 -5.277688
vt 0.067818 -5.277688
vt 0.080199 -6.918137
vt 0.005105 -6.918137
vt 0.001432 -5.778531
vt 0.067818 -5.778531
vt 0.080199 -7.449366
vt 0.005105 -7.449366
vt 0.001432 -6.248482
vt 0.067818 -6.248482
vt 0.080177 -7.962618
vt 0.005105 -7.962618
vt 0.001432 -6.701460
vt 0.067818 -6.701460
vt 0.080177 -8.464351
vt 0.005105 -8.464351
vt 0.001432 -7.141455
vt 0.067818 -7.141455
vt 0.080177 -8.960977
vt 0.005105 -8.960977
vt 0.001432 -7.572382
vt 0.067818 -7.572382
vt 0.080177 -9.374557
vt 0.005105 -9.374557
vt 0.001432 -8.005150
vt 0.067818 -8.005150
vt 0.150439 10.731959
vt 0.150439 10.819633
vt 0.150439 8.267131
vt 0.150439 8.716737
vt 0.150439 8.022441
vt 0.150439 7.738440
vt 0.150439 7.437783
vt 0.150439 7.118246
vt 0.150439 6.776953
vt 0.150439 6.404150
vt 0.150439 5.987182
vt 0.150439 5.551569
vt 0.150439 5.127770
vt 0.150439 4.708097
vt 0.150439 4.283559
vt 0.150439 3.853049
vt 0.150439 3.415432
vt 0.150439 2.962511
vt 0.150439 -0.703623
vt 0.150439 -1.019281
vt 0.150439 -1.559448
vt 0.150439 -2.083463
vt 0.150439 -2.604497
vt 0.150439 -3.124022
vt 0.150439 -3.644079
vt 0.150439 -4.175780
vt 0.150439 -4.731822
vt 0.150439 -5.277688
vt 0.150439 -5.778531
vt 0.150439 -6.248482
vt 0.150439 -6.701460
vt 0.150439 -7.141455
vt 0.150439 -7.572382
vt 0.150439 -8.005150
vt 0.157914 11.473040
vt 0.157914 11.408679
vt 0.157914 9.209081
vt 0.157914 8.944358
vt 0.157914 8.547111
vt 0.157914 8.148904
vt 0.157914 7.738315
vt 0.157914 7.312166
vt 0.157914 6.866318
vt 0.157914 6.400926
vt 0.157914 5.914798
vt 0.157914 5.414631
vt 0.157914 4.910465
vt 0.157914 4.404998
vt 0.157914 3.899380
vt 0.157914 3.390754
vt 0.157914 2.876144
vt 0.157914 2.357281
vt 0.157914 -1.295711
vt 0.157914 -1.623794
vt 0.157914 -2.231091
vt 0.157914 -2.834986
vt 0.157914 -3.432508
vt 0.157914 -4.026129
vt 0.157914 -4.619214
vt 0.157914 -5.209068
vt 0.157914 -5.794092
vt 0.157914 -6.366619
vt 0.157914 -6.918137
vt 0.157914 -7.449366
vt 0.157914 -7.962618
vt 0.157914 -8.464351
vt 0.157914 -8.960977
vt 0.157914 -9.374557
vt 0.080177 -10.929263
vt 0.005105 -10.929263
vt 0.001432 -9.958755
vt 0.067818 -9.958755
vt 0.150439 -9.958755
vt 0.157914 -10.929263
vn -0.0000 -0.7071 0.7071
vn 0.0000 0.7071 0.7071
vn -0.1959 -0.6934 0.6934
vn -0.2392 -0.6866 0.6866
vn -0.0870 -0.7044 0.7044
vn -0.0383 -0.7066 0.7066
vn 0.0407 0.7065 0.7065
vn 0.2160 0.6904 0.6904
vn 0.2710 0.6806 0.6807
vn 0.1015 0.7034 0.7035
vn -0.3647 -0.6584 0.6584
vn -0.3590 -0.6600 0.6600
vn 0.3993 0.6483 0.6483
vn 0.3967 0.6491 0.6491
vn -0.4670 -0.6202 0.6302
vn -0.4690 -0.5553 0.6868
vn 0.5018 0.6117 0.6116
vn 0.4925 0.5804 0.6485
vn -0.5755 -0.4831 0.6599
vn -0.5561 -0.4294 0.7117
vn 0.5984 0.5042 0.6227
vn 0.5838 0.4492 0.6763
vn -0.6546 -0.3318 0.6793
vn -0.6187 -0.2939 0.7286
vn 0.6609 0.3556 0.6609
vn 0.6496 0.3078 0.6952
vn -0.6968 -0.1703 0.6968
vn -0.6581 -0.1505 0.7378
vn 0.6947 0.1865 0.6947
vn 0.6909 0.1578 0.7055
vn -0.7067 -0.0386 0.7065
vn -0.6864 -0.0394 0.7262
vn 0.7064 0.0452 0.7064
vn 0.7065 0.0420 0.7065
vn -0.7067 0.0386 0.7065
vn -0.6864 0.0394 0.7262
vn 0.7064 -0.0452 0.7064
vn 0.7065 -0.0420 0.7065
vn -0.6968 0.1703 0.6968
vn -0.6581 0.1505 0.7378
vn 0.6947 -0.1865 0.6947
vn 0.6909 -0.1578 0.7055
vn -0.6546 0.3318 0.6793
vn -0.6187 0.2939 0.7286
vn 0.6609 -0.3556 0.6609
vn 0.6496 -0.3077 0.6952
vn -0.5755 0.4831 0.6599
vn -0.5561 0.4294 0.7117
vn 0.5984 -0.5042 0.6227
vn 0.5838 -0.4492 0.6763
vn -0.4670 0.6202 0.6302
vn -0.4690 0.5553 0.6868
vn 0.5018 -0.6117 0.6116
vn 0.4925 -0.5804 0.6485
vn -0.3647 0.6584 0.6584
vn -0.3590 0.6600 0.6600
vn 0.3993 -0.6483 0.6483
vn 0.3967 -0.6491 0.6491
vn -0.1959 0.6934 0.6934
vn -0.2392 0.6866 0.6866
vn 0.2160 -0.6904 0.6904
vn 0.2711 -0.6806 0.6806
vn -0.0383 0.7066 0.7066
vn -0.0870 0.7044 0.7044
vn 0.0407 -0.7065 0.7065
vn 0.1015 -0.7035 0.7034
vn 0.0383 0.7066 0.7066
vn 0.0870 0.7044 0.7044
vn -0.0407 -0.7065 0.7065
vn -0.1015 -0.7035 0.7034
vn 0.1959 0.6934 0.6934
vn 0.2392 0.6866 0.6866
vn -0.2160 -0.6904 0.6904
vn -0.2710 -0.6806 0.6806
vn 0.3646 0.6584 0.6584
vn 0.3590 0.6600 0.6600
vn -0.3993 -0.6483 0.6483
vn -0.3967 -0.6491 0.6491
vn 0.4670 0.6202 0.6302
vn 0.4690 0.5553 0.6868
vn -0.5017 -0.6116 0.6117
vn -0.4925 -0.5804 0.6485
vn 0.5755 0.4831 0.6599
vn 0.5561 0.4294 0.7117
vn -0.5984 -0.5042 0.6227
vn -0.5838 -0.4492 0.6763
vn 0.6546 0.3318 0.6793
vn 0.6187 0.2939 0.7286
vn -0.6609 -0.3556 0.6609
vn -0.6496 -0.3078 0.6952
vn 0.6968 0.1703 0.6968
vn 0.6581 0.1505 0.7378
vn -0.6947 -0.1865 0.6947
vn -0.6909 -0.1578 0.7055
vn 0.7067 0.0386 0.7065
vn 0.6864 0.0394 0.7262
vn -0.7064 -0.0452 0.7064
vn -0.7065 -0.0420 0.7065
vn 0.7067 -0.0386 0.7065
vn 0.6864 -0.0394 0.7262
vn -0.7064 0.0452 0.7064
vn -0.7065 0.0420 0.7065
vn 0.6968 -0.1703 0.6968
vn 0.6581 -0.1505 0.7378
vn -0.6947 0.1865 0.6947
vn -0.6909 0.1578 0.7055
vn 0.6546 -0.3318 0.6793
vn 0.6187 -0.2939 0.7286
vn -0.6609 0.3556 0.6609
vn -0.6496 0.3077 0.6952
vn 0.5755 -0.4831 0.6599
vn 0.5561 -0.4294 0.7117
vn -0.5984 0.5042 0.6227
vn -0.5838 0.4492 0.6763
vn 0.4670 -0.6202 0.6302
vn 0.4690 -0.5553 0.6868
vn -0.5018 0.6117 0.6116
vn -0.4925 0.5804 0.6485
vn 0.3647 -0.6584 0.6584
vn 0.3590 -0.6600 0.6600
vn -0.3993 0.6483 0.6483
vn -0.3967 0.6491 0.6491
vn 0.1959 -0.6934 0.6934
vn 0.2392 -0.6866 0.6866
vn -0.2160 0.6904 0.6904
vn -0.2711 0.6806 0.6806
vn 0.0383 -0.7066 0.7066
vn 0.0870 -0.7044 0.7044
vn -0.0407 0.7065 0.7065
vn -0.1015 0.7035 0.7034
vn 0.0000 -0.0000 1.0000
usemtl material_0
s 1
f 69/1/1 70/2/1 71/3/1
f 69/1/1 71/3/1 72/4/1
f 73/5/2 74/6/2 75/7/2
f 73/5/2 75/7/2 76/8/2
f 77/9/3 78/10/4 79/11/5
f 77/9/3 79/11/5 80/12/6
f 81/13/7 82/14/8 83/15/9
f 81/13/7 83/15/9 84/16/10
f 85/17/11 86/18/12 78/10/4
f 85/17/11 78/10/4 77/9/3
f 82/14/8 87/19/13 88/20/14
f 82/14/8 88/20/14 83/15/9
f 89/21/15 90/22/16 86/18/12
f 89/21/15 86/18/12 85/17/11
f 87/19/13 91/23/17 92/24/18
f 87/19/13 92/24/18 88/20/14
f 93/25/19 94/26/20 90/22/16
f 93/25/19 90/22/16 89/21/15
f 91/23/17 95/27/21 96/28/22
f 91/23/17 96/28/22 92/24/18
f 97/29/23 98/30/24 94/26/20
f 97/29/23 94/26/20 93/25/19
f 95/27/21 99/31/25 100/32/26
f 95/27/21 100/32/26 96/28/22
f 101/33/27 102/34/28 98/30/24
f 101/33/27 98/30/24 97/29/23
f 99/31/25 103/35/29 104/36/30
f 99/31/25 104/36/30 100/32/26
f 101/33/27 105/37/31 106/38/32
f 101/33/27 106/38/32 102/34/28
f 103/35/29 107/39/33 108/40/34
f 103/35/29 108/40/34 104/36/30
f 105/37/31 109/41/35 110/42/36
f 105/37/31 110/42/36 106/38/32
f 107/39/33 111/43/37 112/44/38
f 107/39/33 112/44/38 108/40/34
f 109/41/35 113/45/39 114/46/40
f 109/41/35 114/46/40 110/42/36
f 111/43/37 115/47/41 116/48/42
f 111/43/37 116/48/42 112/44/38
f 113/45/39 117/49/43 118/50/44
f 113/45/39 118/50/44 114/46/40
f 115/47/41 119/51/45 120/52/46
f 115/47/41 120/52/46 116/48/42
f 117/49/43 121/53/47 122/54/48
f 117/49/43 122/54/48 118/50/44
f 119/51/45 123/55/49 124/56/50
f 119/51/45 124/56/50 120/52/46
f 121/53/47 125/57/51 126/58/52
f 121/53/47 126/58/52 122/54/48
f 123/55/49 127/59/53 128/60/54
f 123/55/49 128/60/54 124/56/50
f 125/57/51 129/61/55 130/62/56
f 125/57/51 130/62/56 126/58/52
f 127/59/53 131/63/57 132/64/58
f 127/59/53 132/64/58 128/60/54
f 129/61/55 133/65/59 134/66/60
f 129/61/55 134/66/60 130/62/56
f 131/63/57 135/67/61 136/68/62
f 131/63/57 136/68/62 132/64/58
f 133/65/59 137/69/63 138/70/64
f 133/65/59 138/70/64 134/66/60
f 135/67/61 139/71/65 140/72/66
f 135/67/61 140/72/66 136/68/62
f 141/73/67 142/74/68 138/70/64
f 141/73/67 138/70/64 137/69/63
f 143/75/69 144/76/70 140/72/66
f 143/75/69 140/72/66 139/71/65
f 145/77/71 146/78/72 142/74/68
f 145/77/71 142/74/68 141/73/67
f 143/75/69 147/79/73 148/80/74
f 143/75/69 148/80/74 144/76/70
f 149/81/75 150/82/76 146/78/72
f 149/81/75 146/78/72 145/77/71
f 147/79/73 151/83/77 152/84/78
f 147/79/73 152/84/78 148/80/74
f 153/85/79 154/86/80 150/82/76
f 153/85/79 150/82/76 149/81/75
f 151/83/77 155/87/81 156/88/82
f 151/83/77 156/88/82 152/84/78
f 157/89/83 158/90/84 154/86/80
f 157/89/83 154/86/80 153/85/79
f 155/87/81 159/91/85 160/92/86
f 155/87/81 160/92/86 156/88/82
f 161/93/87 162/94/88 158/90/84
f 161/93/87 158/90/84 157/89/83
f 159/91/85 163/95/89 164/96/90
f 159/91/85 164/96/90 160/92/86
f 165/97/91 166/98/92 162/94/88
f 165/97/91 162/94/88 161/93/87
f 163/95/89 167/99/93 168/100/94
f 163/95/89 168/100/94 164/96/90
f 165/97/91 169/101/95 170/102/96
f 165/97/91 170/102/96 166/98/92
f 167/99/93 171/103/97 172/104/98
f 167/99/93 172/104/98 168/100/94
f 169/101/95 173/105/99 174/106/100
f 169/101/95 174/106/100 170/102/96
f 171/103/97 175/107/101 176/108/102
f 171/103/97 176/108/102 172/104/98
f 173/105/99 177/109/103 178/110/104
f 173/105/99 178/110/104 174/106/100
f 175/107/101 179/111/105 180/112/106
f 175/107/101 180/112/106 176/108/102
f 177/109/103 181/113/107 182/114/108
f 177/109/103 182/114/108 178/110/104
f 179/111/105 183/115/109 184/116/110
f 179/111/105 184/116/110 180/112/106
f 181/113/107 185/117/111 186/118/112
f 181/113/107 186/118/112 182/114/108
f 183/115/109 187/119/113 188/120/114
f 183/115/109 188/120/114 184/116/110
f 185/117/111 189/121/115 190/122/116
f 185/117/111 190/122/116 186/118/112
f 187/119/113 191/123/117 192/124/118
f 187/119/113 192/124/118 188/120/114
f 189/121/115 193/125/119 194/126/120
f 189/121/115 194/126/120 190/122/116
f 191/123/117 195/127/121 196/128/122
f 191/123/117 196/128/122 192/124/118
f 193/125/119 197/129/123 198/130/124
f 193/125/119 198/130/124 194/126/120
f 195/127/121 199/131/125 200/132/126
f 195/127/121 200/132/126 196/128/122
f 197/129/123 201/133/127 202/134/128
f 197/129/123 202/134/128 198/130/124
f 199/131/125 203/135/129 204/136/130
f 199/131/125 204/136/130 200/132/126
f 76/8/2 68/137/131 65/138/131
f 76/8/2 65/138/131 73/5/2
f 84/16/10 83/15/9 3/139/131
f 84/16/10 3/139/131 2/140/131
f 83/15/9 88/20/14 6/141/131
f 83/15/9 6/141/131 3/139/131
f 88/20/14 92/24/18 8/142/131
f 88/20/14 8/142/131 6/141/131
f 92/24/18 96/28/22 10/143/131
f 92/24/18 10/143/131 8/142/131
f 96/28/22 100/32/26 12/144/131
f 96/28/22 12/144/131 10/143/131
f 100/32/26 104/36/30 14/145/131
f 100/32/26 14/145/131 12/144/131
f 104/36/30 108/40/34 16/146/131
f 104/36/30 16/146/131 14/145/131
f 108/40/34 112/44/38 18/147/131
f 108/40/34 18/147/131 16/146/131
f 112/44/38 116/48/42 19/148/131
f 112/44/38 19/148/131 18/147/131
f 116/48/42 120/52/46 22/149/131
f 116/48/42 22/149/131 19/148/131
f 120/52/46 124/56/50 24/150/131
f 120/52/46 24/150/131 22/149/131
f 124/56/50 128/60/54 26/151/131
f 124/56/50 26/151/131 24/150/131
f 128/60/54 132/64/58 28/152/131
f 128/60/54 28/152/131 26/151/131
f 132/64/58 136/68/62 30/153/131
f 132/64/58 30/153/131 28/152/131
f 136/68/62 140/72/66 32/154/131
f 136/68/62 32/154/131 30/153/131
f 144/76/70 33/155/131 32/154/131
f 144/76/70 32/154/131 140/72/66
f 144/76/70 148/80/74 35/156/131
f 144/76/70 35/156/131 33/155/131
f 148/80/74 152/84/78 38/157/131
f 148/80/74 38/157/131 35/156/131
f 152/84/78 156/88/82 40/158/131
f 152/84/78 40/158/131 38/157/131
f 156/88/82 160/92/86 42/159/131
f 156/88/82 42/159/131 40/158/131
f 160/92/86 164/96/90 44/160/131
f 160/92/86 44/160/131 42/159/131
f 164/96/90 168/100/94 46/161/131
f 164/96/90 46/161/131 44/160/131
f 168/100/94 172/104/98 48/162/131
f 168/100/94 48/162/131 46/161/131
f 172/104/98 176/108/102 50/163/131
f 172/104/98 50/163/131 48/162/131
f 176/108/102 180/112/106 51/164/131
f 176/108/102 51/164/131 50/163/131
f 180/112/106 184/116/110 54/165/131
f 180/112/106 54/165/131 51/164/131
f 184/116/110 188/120/114 56/166/131
f 184/116/110 56/166/131 54/165/131
f 188/120/114 192/124/118 58/167/131
f 188/120/114 58/167/131 56/166/131
f 192/124/118 196/128/122 60/168/131
f 192/124/118 60/168/131 58/167/131
f 196/128/122 200/132/126 61/169/131
f 196/128/122 61/169/131 60/168/131
f 200/132/126 204/136/130 64/170/131
f 200/132/126 64/170/131 61/169/131
f 70/2/1 66/171/131 67/172/131
f 70/2/1 67/172/131 71/3/1
f 77/9/3 80/12/6 1/173/131
f 77/9/3 1/173/131 4/174/131
f 85/17/11 77/9/3 4/174/131
f 85/17/11 4/174/131 5/175/131
f 89/21/15 85/17/11 5/175/131
f 89/21/15 5/175/131 7/176/131
f 93/25/19 89/21/15 7/176/131
f 93/25/19 7/176/131 9/177/131
f 97/29/23 93/25/19 9/177/131
f 97/29/23 9/177/131 11/178/131
f 101/33/27 97/29/23 11/178/131
f 101/33/27 11/178/131 13/179/131
f 105/37/31 101/33/27 13/179/131
f 105/37/31 13/179/131 15/180/131
f 109/41/35 105/37/31 15/180/131
f 109/41/35 15/180/131 17/181/131
f 113/45/39 109/41/35 17/181/131
f 113/45/39 17/181/131 20/182/131
f 117/49/43 113/45/39 20/182/131
f 117/49/43 20/182/131 21/183/131
f 121/53/47 117/49/43 21/183/131
f 121/53/47 21/183/131 23/184/131
f 125/57/51 121/53/47 23/184/131
f 125/57/51 23/184/131 25/185/131
f 129/61/55 125/57/51 25/185/131
f 129/61/55 25/185/131 27/186/131
f 133/65/59 129/61/55 27/186/131
f 133/65/59 27/186/131 29/187/131
f 137/69/63 133/65/59 29/187/131
f 137/69/63 29/187/131 31/188/131
f 31/188/131 34/189/131 141/73/67
f 31/188/131 141/73/67 137/69/63
f 145/77/71 141/73/67 34/189/131
f 145/77/71 34/189/131 36/190/131
f 149/81/75 145/77/71 36/190/131
f 149/81/75 36/190/131 37/191/131
f 153/85/79 149/81/75 37/191/131
f 153/85/79 37/191/131 39/192/131
f 157/89/83 153/85/79 39/192/131
f 157/89/83 39/192/131 41/193/131
f 161/93/87 157/89/83 41/193/131
f 161/93/87 41/193/131 43/194/131
f 165/97/91 161/93/87 43/194/131
f 165/97/91 43/194/131 45/195/131
f 169/101/95 165/97/91 45/195/131
f 169/101/95 45/195/131 47/196/131
f 173/105/99 169/101/95 47/196/131
f 173/105/99 47/196/131 49/197/131
f 177/109/103 173/105/99 49/197/131
f 177/109/103 49/197/131 52/198/131
f 181/113/107 177/109/103 52/198/131
f 181/113/107 52/198/131 53/199/131
f 185/117/111 181/113/107 53/199/131
f 185/117/111 53/199/131 55/200/131
f 189/121/115 185/117/111 55/200/131
f 189/121/115 55/200/131 57/201/131
f 193/125/119 189/121/115 57/201/131
f 193/125/119 57/201/131 59/202/131
f 197/129/123 193/125/119 59/202/131
f 197/129/123 59/202/131 62/203/131
f 201/133/127 197/129/123 62/203/131
f 201/133/127 62/203/131 63/204/131
f 201/133/127 70/205/1 69/206/1
f 201/133/127 69/206/1 202/134/128
f 72/4/1 71/3/1 80/12/6
f 72/4/1 80/12/6 79/11/5
f 203/135/129 74/207/2 73/208/2
f 203/135/129 73/208/2 204/136/130
f 76/8/2 75/7/2 81/13/7
f 76/8/2 81/13/7 84/16/10
f 68/137/131 76/8/2 84/16/10
f 68/137/131 84/16/10 2/140/131
f 65/209/131 64/170/131 204/136/130
f 65/209/131 204/136/130 73/208/2
f 66/210/131 70/205/1 201/133/127
f 66/210/131 201/133/127 63/204/131
f 71/3/1 67/172/131 1/173/131
f 71/3/1 1/173/131 80/12/6
