####
#
# OBJ File Generated by Meshlab
#
####
# Object aws_Archway_01_collision.obj
#
# Vertices: 16
# Faces: 24
#
####
mtllib ./aws_Archway_01_collision.obj.mtl

vn -1.569685 -1.585876 -0.000525
v -360.206696 23.026157 0.000000
vn 1.572020 -1.555698 0.000002
v 359.760162 23.467064 0.000000
vn -1.571367 1.555720 0.000113
v -362.279694 238.973679 0.000000
vn 1.569834 1.585886 0.000313
v 357.687134 239.196579 0.000000
vn -1.568534 -1.585864 1.578519
v -360.206604 22.860014 500.000000
vn 1.570121 -1.555711 1.560156
v 359.760071 23.273983 500.000000
vn -1.571871 1.555720 1.562207
v -362.279633 238.889374 500.000000
vn 1.570988 1.585885 1.580809
v 357.687103 239.098648 500.000000
vn 1.559200 1.698552 -0.172460
v -269.615356 239.014740 0.000000
vn -1.562961 1.663245 -0.172058
v 264.660522 239.155487 0.000000
vn -1.558470 -1.698563 -0.172380
v 267.095886 23.385857 0.000000
vn 1.564161 -1.663255 -0.172856
v -267.180084 23.107351 0.000000
vn -1.561560 -4.617774 -1.740258
v 221.536896 23.385862 411.894531
vn 1.565246 -4.588600 -1.755884
v -222.034607 23.107319 411.894531
vn 1.559979 4.617772 -1.730772
v -224.056396 239.014709 411.894531
vn -1.560335 4.588597 -1.747979
v 219.515060 239.155472 411.894531
# 16 vertices, 0 vertices normals


usemtl material_0
vt 0.176508 0.529986
vt 0.014412 0.528428
vt 0.014579 -0.012545
f 6/1/6 8/2/8 7/3/7
vt 0.176839 -0.010987
f 6/1/6 7/3/7 5/4/5
vt 0.220971 -0.012931
vt 0.220971 0.529599
vt -0.013109 0.529599
f 4/5/4 8/6/8 6/7/6
vt -0.013109 -0.012931
f 4/5/4 6/7/6 2/8/2
vt -0.013587 -0.012931
vt -0.013587 0.529599
vt 0.220729 0.529599
f 1/9/1 5/10/5 7/11/7
vt 0.220729 -0.012931
f 1/9/1 7/11/7 3/12/3
vt 0.098437 0.855520
vt 0.431731 0.855520
vt 0.535590 0.921721
f 14/13/14 13/14/13 6/15/6
vt -0.005383 0.921721
f 14/13/14 6/15/6 5/16/5
vt 0.430212 0.855520
vt 0.096918 0.855520
vt -0.006941 0.921721
f 16/17/16 15/18/15 7/19/7
vt 0.534032 0.921721
f 16/17/16 7/19/7 8/20/8
vt 0.535590 0.546028
f 2/21/2 6/15/6 13/14/13
vt 0.465963 0.546028
f 2/21/2 13/14/13 11/22/11
vt -0.005383 0.546028
vt 0.064516 0.546028
f 5/16/5 1/23/1 12/24/12
f 5/16/5 12/24/12 14/13/14
vt -0.006941 0.546028
f 3/25/3 7/19/7 15/18/15
vt 0.062686 0.546028
f 3/25/3 15/18/15 9/26/9
vt 0.534032 0.546028
vt 0.464133 0.546028
f 8/20/8 4/27/4 10/28/10
f 8/20/8 10/28/10 16/17/16
vt 0.176778 0.092833
vt 0.014548 0.091314
vt 0.014443 0.424608
f 14/29/14 15/30/15 16/31/16
vt 0.176569 0.426127
f 14/29/14 16/31/16 13/32/13
vt -0.013197 0.433999
vt 0.220926 0.433999
vt 0.220926 -0.012931
f 13/33/13 16/34/16 10/35/10
vt -0.013197 -0.012931
f 13/33/13 10/35/10 11/36/11
vt 0.220773 0.433999
vt -0.013499 0.433999
vt -0.013499 -0.012931
f 15/37/15 14/38/14 12/39/12
vt 0.220773 -0.012931
f 15/37/15 12/39/12 9/40/9
# 24 faces, 40 coords texture

# End of File
