####
#
# OBJ File Generated by Meshlab
#
####
# Object aws_Column_01_collision.obj
#
# Vertices: 8
# Faces: 12
#
####
mtllib ./aws_Column_01_collision.obj.mtl

vn 2.145748 0.574951 -1.570796
v 58.658924 20.808819 -0.000007
vn -0.574951 2.145748 -1.570796
v -11.308276 61.204399 -0.000007
vn -2.145748 -0.574951 -1.570796
v -59.182140 -21.715569 -0.000007
vn 0.574951 -2.145748 -1.570796
v 10.785044 -62.111149 -0.000007
vn 2.145747 0.574951 1.570796
v 58.658924 20.808819 498.516602
vn -0.574952 2.145748 1.570796
v -11.308276 61.204399 498.516602
vn -2.145748 -0.574951 1.570796
v -59.182140 -21.715569 498.516602
vn 0.574951 -2.145748 1.570796
v 10.785044 -62.111149 498.516602
# 8 vertices, 0 vertices normals


usemtl material_0
vt 0.291747 0.871800
vt 0.748857 0.607887
vt 0.596487 0.343975
f 2/1/2 1/2/1 4/3/4
vt 0.139376 0.607887
f 2/1/2 4/3/4 3/4/3
vt 0.020001 0.020000
vt 0.346966 0.020001
vt 0.346965 0.994431
f 1/5/1 2/6/2 6/7/6
vt 0.020000 0.994431
f 1/5/1 6/7/6 5/8/5
vt 0.510448 0.020001
vt 0.510448 0.994431
f 2/6/2 3/9/3 7/10/7
f 2/6/2 7/10/7 6/7/6
vt 0.837413 0.020001
vt 0.837414 0.994431
f 3/9/3 4/11/4 8/12/8
f 3/9/3 8/12/8 7/10/7
vt 1.000896 0.020000
vt 1.000896 0.994431
f 4/11/4 1/13/1 5/14/5
f 4/11/4 5/14/5 8/12/8
f 6/1/6 7/4/7 8/3/8
f 6/1/6 8/3/8 5/2/5
# 12 faces, 14 coords texture

# End of File
