####
#
# OBJ File Generated by Meshlab
#
####
# Object aws_Column_01_visual.obj
#
# Vertices: 12
# Faces: 20
#
####
mtllib ./aws_Column_01_visual.obj.mtl

vn 2.720699 -0.000000 -2.094395
v 46.644802 0.000000 0.000000
vn 1.360349 2.356195 -2.094395
v 23.322397 40.395584 0.000000
vn -1.360350 2.356194 -2.094395
v -23.322403 40.395580 0.000000
vn -2.720699 -0.000000 -2.094395
v -46.644802 -0.000004 0.000000
vn -1.360350 -2.356195 -2.094395
v -23.322395 -40.395584 0.000000
vn 1.360350 -2.356195 -2.094395
v 23.322395 -40.395584 0.000000
vn 2.720699 -0.000000 2.094395
v 46.644802 0.000000 498.516602
vn 1.360349 2.356194 2.094395
v 23.322397 40.395584 498.516602
vn -1.360350 2.356194 2.094395
v -23.322403 40.395580 498.516602
vn -2.720699 -0.000000 2.094395
v -46.644802 -0.000004 498.516602
vn -1.360350 -2.356195 2.094395
v -23.322395 -40.395584 498.516602
vn 1.360350 -2.356195 2.094395
v 23.322395 -40.395584 498.516602
# 12 vertices, 0 vertices normals


usemtl material_0
vt 0.139376 0.607887
vt 0.291747 0.871800
vt 0.596487 0.871800
f 4/1/4 3/2/3 2/3/2
vt 0.291747 0.343975
f 4/1/4 2/3/2 5/4/5
vt 0.020001 0.020000
vt 0.183483 0.020000
vt 0.183483 0.994431
f 1/5/1 2/6/2 8/7/8
vt 0.020000 0.994431
f 1/5/1 8/7/8 7/8/7
vt 0.346966 0.020001
vt 0.346965 0.994431
f 2/6/2 3/9/3 9/10/9
f 2/6/2 9/10/9 8/7/8
vt 0.510448 0.020001
vt 0.510448 0.994431
f 3/9/3 4/11/4 10/12/10
f 3/9/3 10/12/10 9/10/9
vt 0.673931 0.020001
vt 0.673931 0.994431
f 4/11/4 5/13/5 11/14/11
f 4/11/4 11/14/11 10/12/10
vt 0.837413 0.020001
vt 0.837414 0.994431
f 5/13/5 6/15/6 12/16/12
f 5/13/5 12/16/12 11/14/11
vt 1.000896 0.020000
vt 1.000896 0.994431
f 6/15/6 1/17/1 7/18/7
f 6/15/6 7/18/7 12/16/12
f 9/2/9 10/1/10 11/4/11
f 9/2/9 11/4/11 8/3/8
vt 0.596487 0.343975
vt 0.748857 0.607887
f 12/19/12 7/20/7 8/3/8
f 12/19/12 8/3/8 11/4/11
f 1/20/1 6/19/6 5/4/5
f 1/20/1 5/4/5 2/3/2
# 20 faces, 20 coords texture

# End of File
