####
#
# OBJ File Generated by Meshlab
#
####
# Object aws_FenceMesh_01_collision.obj
#
# Vertices: 8
# Faces: 12
#
####
mtllib ./aws_FenceMesh_01_collision.obj.mtl

vn -1.570796 1.570797 -1.570790
v -3.445975 260.204865 -66.654327
vn 1.570796 1.570796 -1.570796
v 3.567666 260.204865 -66.654327
vn -1.570796 1.570796 1.570796
v -3.445975 260.204865 0.064228
vn 1.570796 1.570797 1.570790
v 3.567666 260.204865 0.064228
vn -1.570796 -1.570797 -1.570796
v -3.445975 -260.040283 -66.654327
vn 1.570796 -1.570796 -1.570790
v 3.567666 -260.040283 -66.654327
vn -1.570796 -1.570796 1.570790
v -3.445975 -260.040283 0.064228
vn 1.570796 -1.570797 1.570796
v 3.567666 -260.040283 0.064228
# 8 vertices, 0 vertices normals


usemtl material_0
vt 1.000000 0.000000
vt 1.000000 1.000000
vt 0.000000 1.000000
f 1/1/1 3/2/3 4/3/4
vt 0.000000 0.000000
f 1/1/1 4/3/4 2/4/2
f 5/4/5 6/1/6 8/2/8
f 5/4/5 8/2/8 7/3/7
f 1/4/1 2/1/2 6/2/6
f 1/4/1 6/2/6 5/3/5
f 2/4/2 4/1/4 8/2/8
f 2/4/2 8/2/8 6/3/6
f 4/4/4 3/1/3 7/2/7
f 4/4/4 7/2/7 8/3/8
f 3/4/3 1/1/1 5/2/5
f 3/4/3 5/2/5 7/3/7
# 12 faces, 4 coords texture

# End of File
