####
#
# OBJ File Generated by Meshlab
#
####
# Object aws_Ground_01_collision.obj
#
# Vertices: 8
# Faces: 12
#
####
mtllib ./aws_Ground_01_collision.obj.mtl

vn -1.570786 -1.570787 1.570767
v -42384.863281 -42378.703125 4.646057
vn 1.570787 -1.570786 1.570767
v 42341.425781 -42378.703125 4.646057
vn -1.570787 1.570786 1.570767
v -42384.863281 42347.585938 4.646057
vn 1.570786 1.570787 1.570767
v 42341.425781 42347.585938 4.646057
vn -1.570806 -1.570805 -1.570826
v -42384.859375 -42378.699219 -416.300903
vn 1.570805 -1.570806 -1.570826
v 42341.421875 -42378.699219 -416.300903
vn -1.570805 1.570806 -1.570826
v -42384.859375 42347.582031 -416.300903
vn 1.570806 1.570805 -1.570826
v 42341.421875 42347.582031 -416.300903
# 8 vertices, 0 vertices normals


usemtl material_0
vt 8.603588 -7.205335
vt 8.603588 8.473763
vt -7.075511 8.473763
f 2/1/2 4/2/4 3/3/3
vt -7.075511 -7.205335
f 2/1/2 3/3/3 1/4/1
f 2/1/2 1/4/1 5/4/5
f 2/1/2 5/4/5 6/1/6
f 4/2/4 2/1/2 6/1/6
f 4/2/4 6/1/6 8/2/8
f 1/4/1 3/3/3 7/3/7
f 1/4/1 7/3/7 5/4/5
f 3/3/3 4/2/4 8/2/8
f 3/3/3 8/2/8 7/3/7
f 7/3/7 8/2/8 6/1/6
f 7/3/7 6/1/6 5/4/5
# 12 faces, 4 coords texture

# End of File
