####
#
# OBJ File Generated by Meshlab
#
####
# Object aws_Ground_01_visual.obj
#
# Vertices: 4
# Faces: 2
#
####
mtllib ./aws_Ground_01_visual.obj.mtl

vn 0.000000 0.000000 1.570796
v -42454.675781 -42448.515625 0.000000
vn 0.000000 0.000000 1.570796
v 42411.238281 -42448.515625 0.000000
vn 0.000000 0.000000 1.570796
v -42454.675781 42417.398438 0.000000
vn 0.000000 0.000000 1.570796
v 42411.238281 42417.398438 0.000000
# 4 vertices, 0 vertices normals


usemtl material_0
vt 8.603588 -7.205335
vt 8.603588 8.473763
vt -7.075511 8.473763
f 2/1/2 4/2/4 3/3/3
vt -7.075511 -7.205335
f 2/1/2 3/3/3 1/4/1
# 2 faces, 4 coords texture

# End of File
