####
#
# OBJ File Generated by Meshlab
#
####
# Object aws_Light_01_collision.obj
#
# Vertices: 16
# Faces: 24
#
####
mtllib ./aws_Light_01_collision.obj.mtl

vn -1.417859 -1.552462 -1.331499
v -154.221100 -48.009651 1344.510864
vn 1.417859 -1.552462 -1.331499
v 154.318039 -48.009651 1344.510864
vn -1.772388 1.538986 -1.885316
v -154.221100 23.368553 1344.510864
vn 1.772389 1.538985 -1.885315
v 154.318069 23.368553 1344.510864
vn -1.723730 -1.552457 1.810093
v -154.221115 -23.415363 1504.068359
vn 1.723730 -1.552456 1.810093
v 154.318069 -23.415363 1504.068359
vn -1.369207 1.538991 1.256277
v -154.221100 55.976997 1504.068115
vn 1.369207 1.538991 1.256276
v 154.318039 55.976997 1504.068115
vn -1.553213 -1.551917 -1.544733
v -32.988564 -50.628960 -3.122803
vn 1.553237 -1.555148 -1.549781
v 28.580856 -50.628960 -3.122803
vn -1.568872 1.575893 -1.545087
v -32.988564 14.957621 -2.618896
vn 1.568900 1.579203 -1.550187
v 28.580854 14.957621 -2.618896
vn -1.593415 -1.597766 1.597092
v -23.799940 -37.332966 1344.688110
vn 1.593442 -1.594431 1.591851
v 23.799940 -37.332966 1344.688110
vn -1.567538 1.557312 1.596450
v -23.799938 2.058889 1345.192017
vn 1.567563 1.554109 1.591295
v 23.799938 2.058889 1345.192017
# 16 vertices, 0 vertices normals


usemtl material_0
vt 1.000000 0.000000
vt 1.000000 1.000000
vt 0.000000 1.000000
f 1/1/1 3/2/3 4/3/4
vt 0.000000 0.000000
f 1/1/1 4/3/4 2/4/2
f 5/4/5 6/1/6 8/2/8
f 5/4/5 8/2/8 7/3/7
f 1/4/1 2/1/2 6/2/6
f 1/4/1 6/2/6 5/3/5
f 2/4/2 4/1/4 8/2/8
f 2/4/2 8/2/8 6/3/6
f 4/4/4 3/1/3 7/2/7
f 4/4/4 7/2/7 8/3/8
f 3/4/3 1/1/1 5/2/5
f 3/4/3 5/2/5 7/3/7
f 9/1/9 11/2/11 12/3/12
f 9/1/9 12/3/12 10/4/10
f 13/4/13 14/1/14 16/2/16
f 13/4/13 16/2/16 15/3/15
f 9/4/9 10/1/10 14/2/14
f 9/4/9 14/2/14 13/3/13
f 10/4/10 12/1/12 16/2/16
f 10/4/10 16/2/16 14/3/14
f 12/4/12 11/1/11 15/2/15
f 12/4/12 15/2/15 16/3/16
f 11/4/11 9/1/9 13/2/13
f 11/4/11 13/2/13 15/3/15
# 24 faces, 4 coords texture

# End of File
