####
#
# OBJ File Generated by Meshlab
#
####
# Object aws_Billboard_01_collision.obj
#
# Vertices: 24
# Faces: 36
#
####
mtllib ./aws_Billboard_01_collision.obj.mtl

vn -1.570796 -1.570796 -1.570797
v -689.044556 -42.805992 496.107239
vn -1.570796 1.570796 -1.570796
v -689.044556 21.957180 496.107239
vn 1.570796 1.570796 -1.570797
v 702.877319 21.957180 496.107239
vn 1.570796 -1.570796 -1.570796
v 702.877319 -42.805988 496.107239
vn -1.570796 -1.570796 1.570797
v -689.044556 -42.805992 797.202759
vn 1.570796 -1.570796 1.570796
v 702.877319 -42.805992 797.202759
vn 1.570796 1.570796 1.570797
v 702.877319 21.957180 797.202759
vn -1.570796 1.570796 1.570796
v -689.044556 21.957180 797.202759
vn -1.570796 -1.570796 -1.570796
v -790.983887 -29.277630 3.661778
vn 1.570796 -1.570796 -1.570796
v -683.540039 -29.277630 3.661778
vn -1.570796 1.570796 -1.570796
v -790.983887 8.196482 3.661778
vn 1.570796 1.570796 -1.570796
v -683.540039 8.196482 3.661778
vn -1.570796 -1.570796 1.570796
v -790.983887 -29.277630 650.082886
vn 1.570796 -1.570796 1.570796
v -683.540039 -29.277630 650.082886
vn -1.570796 1.570796 1.570796
v -790.983887 8.196482 650.082886
vn 1.570796 1.570796 1.570796
v -683.540039 8.196482 650.082886
vn -1.570796 -1.570797 -1.570796
v 685.654907 -29.277630 0.247284
vn -1.570796 1.570796 -1.570796
v 685.654907 8.196482 0.247284
vn 1.570796 1.570797 -1.570796
v 793.098877 8.196482 0.247284
vn 1.570796 -1.570796 -1.570796
v 793.098877 -29.277630 0.247284
vn -1.570796 -1.570796 1.570796
v 685.654907 -29.277630 646.668396
vn 1.570796 -1.570797 1.570796
v 793.098877 -29.277630 646.668396
vn 1.570796 1.570796 1.570796
v 793.098877 8.196482 646.668396
vn -1.570796 1.570797 1.570796
v 685.654907 8.196482 646.668396
# 24 vertices, 0 vertices normals


usemtl material_0
vt 1.000000 0.000000
vt 1.000000 1.000000
vt 0.000000 1.000000
f 1/1/1 2/2/2 3/3/3
vt 0.000000 0.000000
f 1/1/1 3/3/3 4/4/4
f 5/4/5 6/1/6 7/2/7
f 5/4/5 7/2/7 8/3/8
f 1/4/1 4/1/4 6/2/6
f 1/4/1 6/2/6 5/3/5
f 4/4/4 3/1/3 7/2/7
f 4/4/4 7/2/7 6/3/6
f 3/4/3 2/1/2 8/2/8
f 3/4/3 8/2/8 7/3/7
f 2/4/2 1/1/1 5/2/5
f 2/4/2 5/2/5 8/3/8
f 9/1/9 11/2/11 12/3/12
f 9/1/9 12/3/12 10/4/10
f 13/4/13 14/1/14 16/2/16
f 13/4/13 16/2/16 15/3/15
f 9/4/9 10/1/10 14/2/14
f 9/4/9 14/2/14 13/3/13
f 10/4/10 12/1/12 16/2/16
f 10/4/10 16/2/16 14/3/14
f 12/4/12 11/1/11 15/2/15
f 12/4/12 15/2/15 16/3/16
f 11/4/11 9/1/9 13/2/13
f 11/4/11 13/2/13 15/3/15
f 17/1/17 18/2/18 19/3/19
f 17/1/17 19/3/19 20/4/20
f 21/4/21 22/1/22 23/2/23
f 21/4/21 23/2/23 24/3/24
f 17/4/17 20/1/20 22/2/22
f 17/4/17 22/2/22 21/3/21
f 20/4/20 19/1/19 23/2/23
f 20/4/20 23/2/23 22/3/22
f 19/4/19 18/1/18 24/2/24
f 19/4/19 24/2/24 23/3/23
f 18/4/18 17/1/17 21/2/21
f 18/4/18 21/2/21 24/3/24
# 36 faces, 4 coords texture

# End of File
