####
#
# OBJ File Generated by Meshlab
#
####
# Object aws_Billboard_01_visual.obj
#
# Vertices: 104
# Faces: 190
#
####
mtllib ./aws_Billboard_01_visual.obj.mtl

vn -1.570796 -1.570796 1.570796
v -787.703186 -23.852272 644.746155
vn 1.570792 -4.712403 -1.570794
v -685.900513 -23.852272 562.070740
vn 1.570794 -1.570796 -0.000000
v -685.900574 -23.852282 0.000000
vn -1.570797 -1.570796 0.000001
v -787.703308 -23.852282 0.000000
vn 3.141593 -0.000007 -3.141602
v -685.900452 -10.555187 562.070679
vn -1.570796 -4.712389 -1.570796
v -692.470154 -23.852272 562.070740
vn 1.570798 -4.712389 -1.570797
v -781.133545 -23.852272 562.070740
vn -3.141593 -3.141591 0.000000
v -787.703186 -23.852272 564.738403
vn 1.570797 -4.712410 -1.570822
v -781.133545 -23.852272 639.410889
vn 1.570796 -4.712389 1.570796
v -781.133545 -23.852272 567.406067
vn 0.000000 -3.141593 3.141587
v -689.185364 -23.852272 567.406067
vn 1.570796 -1.570796 -1.570796
v -781.133545 -19.743773 639.410889
vn 1.570797 -1.570796 1.570796
v -781.133545 -19.743773 567.406067
vn 0.000000 -3.141594 3.141593
v -689.185364 -19.743773 567.406067
vn 1.570797 -4.712387 1.570797
v -781.133667 -23.852280 4.717565
vn -1.570798 -4.712387 1.570798
v -692.470215 -23.852280 4.717565
vn -1.570798 -1.570796 -1.570796
v -692.470154 -19.743773 562.070740
vn 1.570796 -1.570797 -1.570796
v -781.133545 -19.743773 562.070740
vn 1.570798 -1.570796 1.570796
v -781.133667 -19.743780 4.717565
vn -1.570796 -1.570796 1.570796
v -692.470215 -19.743780 4.717565
vn -3.141593 3.141591 0.000000
v -787.703186 2.741898 564.738403
vn -1.570796 1.570818 1.570794
v -787.703186 2.741898 644.746155
vn 1.570796 1.570798 -1.570822
v -781.133545 -1.366602 639.410889
vn 0.000000 3.141593 3.141592
v -689.185364 -1.366602 567.406067
vn -1.570798 1.570796 -1.570796
v -692.470154 -1.366602 562.070679
vn 1.570796 1.570797 -1.570796
v -781.133545 -1.366602 562.070679
vn 1.570798 1.570796 1.570796
v -781.133667 -1.366594 4.717565
vn -1.570796 1.570796 1.570796
v -692.470215 -1.366594 4.717565
vn -1.570796 1.570796 0.000000
v -787.703308 2.741906 0.000000
vn 1.570796 4.712394 -1.570794
v -685.900513 2.741898 562.070679
vn 1.570794 1.570796 -0.000000
v -685.900574 2.741906 0.000000
vn 3.141593 0.000000 -0.000001
v -685.900574 -10.555187 0.000000
vn 1.570796 4.712389 1.570796
v -781.133545 2.741898 567.406067
vn 1.570797 4.712389 -1.570796
v -781.133545 2.741898 639.410889
vn 1.570798 4.712389 -1.570797
v -781.133545 2.741898 562.070679
vn 1.570796 4.712387 1.570796
v -781.133667 2.741906 4.717565
vn 0.000000 3.141594 3.141587
v -689.185364 2.741898 567.406067
vn -1.570796 4.712389 -1.570796
v -692.470154 2.741898 562.070679
vn 1.570797 1.570796 1.570796
v -781.133545 -1.366602 567.406067
vn -1.570798 4.712387 1.570796
v -692.470215 2.741906 4.717565
vn 3.141593 -3.141591 0.000000
v 789.818298 -23.852272 564.738403
vn 1.570796 -1.570818 1.570794
v 789.818298 -23.852272 644.746155
vn -1.570796 -1.570798 -1.570822
v 783.248657 -19.743773 639.410889
vn 0.000000 -3.141593 3.141586
v 691.300476 -19.743773 567.406067
vn 1.570798 -1.570796 -1.570796
v 694.585266 -19.743773 562.070740
vn -1.570796 -1.570797 -1.570796
v 783.248657 -19.743773 562.070740
vn -1.570798 -1.570796 1.570796
v 783.248779 -19.743780 4.717565
vn 1.570796 -1.570796 1.570796
v 694.585327 -19.743780 4.717565
vn 1.570796 -1.570796 0.000000
v 789.818420 -23.852282 0.000000
vn -1.570792 -4.712401 -1.570792
v 688.015625 -23.852272 562.070740
vn -3.141593 -0.000007 -3.141606
v 688.015564 -10.555187 562.070679
vn -1.570794 -1.570796 -0.000000
v 688.015686 -23.852282 0.000000
vn -3.141593 0.000000 -0.000001
v 688.015686 -10.555187 0.000000
vn -1.570796 -4.712389 1.570796
v 783.248657 -23.852272 567.406067
vn -1.570797 -4.712389 -1.570796
v 783.248657 -23.852272 639.410889
vn -1.570798 -4.712389 -1.570797
v 783.248657 -23.852272 562.070740
vn -1.570796 -4.712387 1.570796
v 783.248779 -23.852282 4.717565
vn 0.000000 -3.141594 3.141593
v 691.300476 -23.852272 567.406067
vn 1.570796 -4.712389 -1.570796
v 694.585266 -23.852272 562.070740
vn -1.570797 -1.570796 1.570796
v 783.248657 -19.743773 567.406067
vn 1.570798 -4.712387 1.570796
v 694.585327 -23.852282 4.717565
vn 3.141593 3.141591 0.000000
v 789.818298 2.741898 564.738403
vn 1.570796 1.570796 1.570796
v 789.818298 2.741898 644.746155
vn -1.570796 1.570796 -1.570796
v 783.248657 -1.366602 639.410889
vn 0.000000 3.141594 3.141586
v 691.300476 -1.366602 567.406067
vn 1.570798 1.570796 -1.570796
v 694.585266 -1.366602 562.070679
vn 1.570796 1.570796 1.570796
v 694.585327 -1.366594 4.717565
vn -1.570798 1.570796 1.570796
v 783.248779 -1.366594 4.717565
vn -1.570796 1.570797 -1.570796
v 783.248657 -1.366602 562.070679
vn 1.570797 1.570796 0.000000
v 789.818420 2.741906 0.000000
vn -1.570796 4.712396 -1.570792
v 688.015625 2.741898 562.070679
vn -1.570794 1.570796 -0.000000
v 688.015686 2.741906 0.000000
vn -1.570797 4.712410 -1.570822
v 783.248657 2.741898 639.410889
vn -1.570796 4.712389 1.570796
v 783.248657 2.741898 567.406067
vn -1.570798 4.712389 -1.570797
v 783.248657 2.741898 562.070679
vn -1.570796 4.712387 1.570796
v 783.248779 2.741906 4.717565
vn 0.000000 3.141592 3.141593
v 691.300476 2.741898 567.406067
vn 1.570796 4.712389 -1.570796
v 694.585266 2.741898 562.070679
vn -1.570797 1.570796 1.570796
v 783.248657 -1.366602 567.406067
vn 1.570798 4.712387 1.570796
v 694.585327 2.741906 4.717565
vn -1.570797 -1.570797 1.570794
v -647.436523 -41.084301 793.090637
vn 1.570797 -1.570803 1.570797
v 649.551636 -41.084301 793.090637
vn -1.570797 -1.570803 -1.570796
v -647.436523 -41.084301 502.958405
vn 1.570796 -1.570797 -1.570793
v 649.551636 -41.084301 502.958405
vn -1.570797 1.570796 1.570796
v -647.436523 -22.828358 793.090637
vn 1.570796 1.570796 1.570793
v 649.551636 -22.828358 793.090637
vn -1.570796 1.570796 -1.570793
v -647.436523 -22.828356 502.958405
vn 1.570797 1.570796 -1.570796
v 649.551636 -22.828356 502.958405
vn -0.000001 -6.283192 0.000001
v -636.095398 -41.084305 786.010681
vn -0.000000 -6.283185 -0.000000
v -636.095398 -41.084301 510.038361
vn -0.000000 -6.283192 -0.000000
v 638.210510 -41.084301 510.038361
vn 0.000001 -6.283185 0.000001
v 638.210510 -41.084305 786.010681
vn -0.000003 6.283192 -0.000004
v 638.210510 21.163189 786.010681
vn -0.000000 6.283185 -0.000000
v 638.210510 21.163185 510.038361
vn -0.000000 6.283192 0.000000
v -636.095398 21.163074 510.038361
vn 0.000000 6.283185 -0.000002
v -636.095398 21.163076 786.010681
vn 1.570797 -1.570796 1.570796
v 649.551758 2.907245 793.090637
vn -1.570796 -1.570796 1.570793
v -647.436646 2.907126 793.090637
vn -1.570796 -1.570796 -1.570796
v -647.436646 2.907128 502.958374
vn 1.570796 -1.570796 -1.570793
v 649.551758 2.907245 502.958374
vn 1.570795 1.570796 1.570792
v 649.551758 21.163200 793.090637
vn -1.570796 1.570803 1.570796
v -647.436646 21.163080 793.090637
vn -1.570796 1.570796 -1.570793
v -647.436646 21.163074 502.958374
vn 1.570797 1.570803 -1.570796
v 649.551758 21.163185 502.958374
# 104 vertices, 0 vertices normals


usemtl material_0
vt 0.364826 0.095990
vt 0.381397 0.095990
vt 0.381397 0.274317
f 1/1/1 22/2/22 21/3/21
vt 0.364826 0.274317
f 1/1/1 21/3/21 8/4/8
vt 0.481025 0.117082
vt 0.481025 1.394107
vt 0.416688 1.479163
f 14/5/14 44/6/44 43/7/43
vt 0.416688 0.032024
f 14/5/14 43/7/43 12/8/12
vt 0.084539 0.020413
vt 0.084539 0.535638
vt 0.005260 0.535638
f 18/9/18 19/10/19 20/11/20
vt 0.005260 0.020413
f 18/9/18 20/11/20 17/12/17
vt 0.026229 0.657430
vt 0.034515 0.657430
vt 0.034515 1.224742
f 2/13/2 5/14/5 51/15/51
vt 0.026229 1.224742
f 2/13/2 51/15/51 50/16/50
vt 0.101392 0.189185
vt 0.109676 0.189185
vt 0.109676 1.441975
f 5/17/5 2/18/2 3/19/3
vt 0.101392 1.441975
f 5/17/5 3/19/3 32/20/32
vt 0.669931 0.180283
vt 0.667309 0.174338
vt 0.667309 0.013848
f 8/21/8 10/22/10 9/23/9
vt 0.669931 0.001955
f 8/21/8 9/23/9 1/24/1
vt 0.669931 1.439020
vt 0.667309 1.428504
f 8/21/8 4/25/4 15/26/15
vt 0.667309 0.186229
f 8/21/8 15/26/15 7/27/7
vt 0.631923 0.186229
vt 0.630612 0.174338
f 7/27/7 6/28/6 11/29/11
f 7/27/7 11/29/11 10/22/10
f 8/21/8 7/27/7 10/22/10
vt 0.629301 0.186229
f 11/29/11 6/28/6 2/30/2
vt 0.043550 0.578783
vt 0.046109 0.578783
vt 0.046109 1.224742
f 9/31/9 12/32/12 43/33/43
vt 0.043549 1.224742
f 9/31/9 43/33/43 55/34/55
vt 0.137946 0.830856
vt 0.137946 0.991347
vt 0.135385 0.991347
f 9/35/9 10/36/10 13/37/13
vt 0.135385 0.830856
f 9/35/9 13/37/13 12/38/12
vt 0.034531 0.236043
vt 0.034531 0.274010
vt 0.031972 0.274010
f 10/39/10 11/40/11 14/41/14
vt 0.031972 0.236043
f 10/39/10 14/41/14 13/42/13
vt 0.034531 0.844034
vt 0.031972 0.844034
f 11/40/11 58/43/58 44/44/44
f 11/40/11 44/44/44 14/41/14
vt 0.629301 1.439020
f 15/26/15 4/25/4 3/45/3
vt 0.631923 1.428504
f 15/26/15 3/45/3 16/46/16
vt 0.027802 1.320362
vt 0.027802 1.356972
vt 0.025242 1.356972
f 6/47/6 7/48/7 18/49/18
vt 0.025242 1.320362
f 6/47/6 18/49/18 17/50/17
vt 0.033160 0.180864
vt 0.033160 1.423139
vt 0.030600 1.423139
f 7/51/7 15/52/15 19/53/19
vt 0.030601 0.180864
f 7/51/7 19/53/19 18/54/18
vt 0.035452 0.727278
vt 0.035452 0.690668
vt 0.038012 0.690668
f 15/55/15 16/56/16 20/57/20
vt 0.038012 0.727278
f 15/55/15 20/57/20 19/58/19
vt 0.020288 -0.002797
vt 0.020288 1.239478
vt 0.017727 1.239478
f 16/59/16 6/60/6 17/61/17
vt 0.017727 -0.002797
f 16/59/16 17/61/17 20/62/20
f 2/30/2 6/28/6 16/46/16
f 2/30/2 16/46/16 3/45/3
vt 0.481025 0.032024
f 12/8/12 13/63/13 14/5/14
vt 0.416077 0.032024
vt 0.416077 1.479163
vt 0.480415 1.394107
f 23/64/23 64/65/64 65/66/65
vt 0.480415 0.117082
f 23/64/23 65/66/65 24/67/24
vt 0.005260 0.535005
vt 0.084539 0.535005
vt 0.084539 0.019782
f 28/68/28 27/69/27 26/70/26
vt 0.005260 0.019782
f 28/68/28 26/70/26 25/71/25
vt 0.381397 1.533054
vt 0.364826 1.533054
f 21/3/21 29/72/29 4/73/4
f 21/3/21 4/73/4 8/4/8
vt 0.093106 1.441975
f 5/17/5 32/20/32 31/74/31
vt 0.093106 0.189185
f 5/17/5 31/74/31 30/75/30
vt 0.032808 0.175530
vt 0.032808 -0.002797
vt 0.035430 0.009095
f 21/76/21 22/77/22 34/78/34
vt 0.035430 0.169584
f 21/76/21 34/78/34 33/79/33
vt 0.035430 1.423752
vt 0.032808 1.434266
f 36/80/36 29/81/29 21/76/21
vt 0.035430 0.181476
f 36/80/36 21/76/21 35/82/35
vt 0.072127 0.169584
vt 0.070818 0.181476
f 37/83/37 38/84/38 35/82/35
f 37/83/37 35/82/35 33/79/33
vt 0.662416 -0.002797
vt 0.659794 0.009095
f 22/77/22 63/85/63 73/86/73
f 22/77/22 73/86/73 34/78/34
f 21/76/21 33/79/33 35/82/35
vt 0.073438 0.181476
f 37/83/37 30/87/30 38/84/38
vt 0.028662 0.236043
vt 0.031222 0.236043
vt 0.031222 0.882000
f 73/88/73 64/89/64 23/90/23
vt 0.028662 0.882000
f 73/88/73 23/90/23 34/91/34
vt 0.114755 0.836282
vt 0.117315 0.836282
vt 0.117315 0.996772
f 34/92/34 23/93/23 39/94/39
vt 0.114755 0.996772
f 34/92/34 39/94/39 33/95/33
vt 0.049420 1.224742
vt 0.046859 1.224742
vt 0.046859 1.186774
f 33/96/33 39/97/39 24/98/24
vt 0.049420 1.186774
f 33/96/33 24/98/24 37/99/37
vt 0.070818 1.423752
vt 0.073438 1.434266
f 36/80/36 40/100/40 31/101/31
f 36/80/36 31/101/31 29/81/29
vt 0.025242 1.265753
vt 0.027802 1.265753
vt 0.027802 1.302364
f 38/102/38 25/103/25 26/104/26
vt 0.025242 1.302364
f 38/102/38 26/104/26 35/105/35
vt 0.032783 0.001955
vt 0.035342 0.001955
vt 0.035342 1.244231
f 35/106/35 26/107/26 27/108/27
vt 0.032783 1.244231
f 35/106/35 27/108/27 36/109/36
vt 0.031391 0.727278
vt 0.028832 0.727278
vt 0.028832 0.690668
f 36/110/36 27/111/27 28/112/28
vt 0.031391 0.690668
f 36/110/36 28/112/28 40/113/40
vt 0.025242 0.001955
vt 0.027802 0.001955
vt 0.027802 1.244231
f 40/114/40 28/115/28 25/116/25
vt 0.025242 1.244231
f 40/114/40 25/116/25 38/117/38
f 40/100/40 38/84/38 30/87/30
f 40/100/40 30/87/30 31/101/31
vt 0.480415 0.032024
f 23/64/23 24/67/24 39/118/39
vt 0.357311 0.269565
vt 0.357311 0.091237
vt 0.373881 0.091237
f 62/119/62 63/120/63 42/121/42
vt 0.373881 0.269565
f 62/119/62 42/121/42 41/122/41
vt 0.084728 0.535881
vt 0.005452 0.535881
vt 0.005452 0.020657
f 48/123/48 47/124/47 46/125/46
vt 0.084728 0.020657
f 48/123/48 46/125/46 45/126/45
vt 0.131325 0.835506
vt 0.114755 0.835506
vt 0.114755 0.184122
f 42/127/42 63/128/63 22/129/22
vt 0.131325 0.184122
f 42/127/42 22/129/22 1/130/1
vt 0.139094 0.189185
vt 0.139094 1.441975
vt 0.130808 1.441975
f 51/131/51 53/132/53 52/133/52
vt 0.130809 0.189185
f 51/131/51 52/133/52 50/134/50
vt 0.040323 0.180283
vt 0.040323 0.001955
vt 0.042945 0.013848
f 41/135/41 42/136/42 55/137/55
vt 0.042945 0.174338
f 41/135/41 55/137/55 54/138/54
vt 0.042945 1.428504
vt 0.040323 1.439020
f 57/139/57 49/140/49 41/135/41
vt 0.042945 0.186229
f 57/139/57 41/135/41 56/141/56
vt 0.079643 0.174338
f 58/142/58 11/29/11 2/30/2
vt 0.080954 0.186229
f 58/142/58 2/30/2 50/143/50
vt 0.078332 0.186229
f 58/142/58 59/144/59 56/141/56
f 58/142/58 56/141/56 54/138/54
f 42/136/42 1/24/1 9/23/9
f 42/136/42 9/23/9 55/137/55
f 41/135/41 54/138/54 56/141/56
f 58/142/58 50/143/50 59/144/59
vt 0.120624 0.996772
vt 0.118065 0.996772
vt 0.118065 0.836282
f 55/145/55 43/146/43 60/147/60
vt 0.120624 0.836282
f 55/145/55 60/147/60 54/148/54
vt 0.034531 0.882000
vt 0.031972 0.882000
f 54/149/54 60/150/60 44/44/44
f 54/149/54 44/44/44 58/43/58
vt 0.078332 1.428504
vt 0.080954 1.439020
f 57/139/57 61/151/61 52/152/52
f 57/139/57 52/152/52 49/140/49
vt 0.035342 1.302364
vt 0.032783 1.302364
vt 0.032783 1.265753
f 59/153/59 45/154/45 46/155/46
vt 0.035342 1.265753
f 59/153/59 46/155/46 56/156/56
vt 0.037712 1.377312
vt 0.035151 1.377312
vt 0.035151 0.135037
f 56/157/56 46/158/46 47/159/47
vt 0.037712 0.135037
f 56/157/56 47/159/47 57/160/57
vt 0.032142 0.690668
vt 0.034701 0.690668
vt 0.034701 0.727278
f 57/161/57 47/162/47 48/163/48
vt 0.032142 0.727278
f 57/161/57 48/163/48 61/164/61
vt 0.045253 1.377312
vt 0.042692 1.377312
vt 0.042692 0.135037
f 61/165/61 48/166/48 45/167/45
vt 0.045253 0.135037
f 61/165/61 45/167/45 59/168/59
f 61/151/61 59/144/59 50/143/50
f 61/151/61 50/143/50 52/152/52
vt 0.481025 1.479163
f 43/7/43 44/6/44 60/169/60
vt 0.005452 0.020024
vt 0.005452 0.535248
vt 0.084728 0.535248
f 69/170/69 68/171/68 67/172/67
vt 0.084728 0.020024
f 69/170/69 67/172/67 66/173/66
vt 0.373881 1.528300
vt 0.357311 1.528300
f 41/122/41 49/174/49 70/175/70
f 41/122/41 70/175/70 62/119/62
vt 0.042799 0.657430
f 51/15/51 5/14/5 30/176/30
vt 0.042799 1.224742
f 51/15/51 30/176/30 71/177/71
vt 0.147378 0.189185
vt 0.147378 1.441975
f 51/131/51 71/178/71 72/179/72
f 51/131/51 72/179/72 53/132/53
vt 0.662416 0.175530
vt 0.659794 0.169584
f 62/180/62 74/181/74 73/86/73
f 62/180/62 73/86/73 63/85/63
vt 0.662416 1.434266
vt 0.659794 1.423752
f 62/180/62 70/182/70 76/183/76
vt 0.659794 0.181476
f 62/180/62 76/183/76 75/184/75
vt 0.621785 0.181476
f 71/185/71 30/87/30 37/83/37
vt 0.623096 0.169584
f 71/185/71 37/83/37 77/186/77
vt 0.624407 0.181476
f 75/184/75 78/187/78 77/186/77
f 75/184/75 77/186/77 74/181/74
f 62/180/62 75/184/75 74/181/74
f 77/186/77 78/187/78 71/185/71
vt 0.132076 0.991347
vt 0.132076 0.830856
vt 0.134635 0.830856
f 73/188/73 74/189/74 79/190/79
vt 0.134635 0.991347
f 73/188/73 79/190/79 64/191/64
vt 0.049420 0.578783
vt 0.049420 0.616750
vt 0.046859 0.616750
f 74/192/74 77/193/77 65/194/65
vt 0.046859 0.578783
f 74/192/74 65/194/65 79/195/79
f 37/99/37 24/98/24 65/194/65
f 37/99/37 65/194/65 77/193/77
vt 0.621785 1.434266
f 76/183/76 70/182/70 72/196/72
vt 0.624407 1.423752
f 76/183/76 72/196/72 80/197/80
vt 0.032783 1.356972
vt 0.032783 1.320362
vt 0.035342 1.320362
f 78/198/78 75/199/75 69/200/69
vt 0.035342 1.356972
f 78/198/78 69/200/69 66/201/66
vt 0.025268 1.239478
vt 0.025268 -0.002797
vt 0.027828 -0.002797
f 75/202/75 76/203/76 68/204/68
vt 0.027828 1.239478
f 75/202/75 68/204/68 69/205/69
vt 0.121375 0.872892
vt 0.121375 0.836282
vt 0.123935 0.836282
f 76/206/76 80/207/80 67/208/67
vt 0.123935 0.872892
f 76/206/76 67/208/67 68/209/68
vt 0.042923 1.379539
vt 0.042923 0.137264
vt 0.045482 0.137264
f 80/210/80 78/211/78 66/212/66
vt 0.045482 1.379539
f 80/210/80 66/212/66 67/213/67
f 71/185/71 78/187/78 80/197/80
f 71/185/71 80/197/80 72/196/72
vt 0.480415 1.479163
f 64/65/64 79/214/79 65/66/65
vt 0.027486 0.005669
vt 0.027486 1.439406
vt 0.272223 1.439406
f 85/215/85 86/216/86 88/217/88
vt 0.272223 0.005669
f 85/215/85 88/217/88 87/218/87
vt 0.096962 0.047961
vt 0.096962 1.427635
vt 0.077351 1.427635
f 81/219/81 82/220/82 86/221/86
vt 0.077352 0.047961
f 81/219/81 86/221/86 85/222/85
vt 0.031633 1.427635
vt 0.031633 0.047961
vt 0.142681 0.047961
f 82/223/82 84/224/84 88/225/88
vt 0.142681 1.427635
f 82/223/82 88/225/88 86/226/86
f 84/220/84 83/219/83 87/222/87
f 84/220/84 87/222/87 88/221/88
f 83/224/83 81/223/81 85/226/85
f 83/224/83 85/226/85 87/225/87
vt 0.264658 0.018205
f 81/215/81 83/218/83 90/227/90
vt 0.035050 0.018205
f 81/215/81 90/227/90 89/228/89
vt 0.264658 1.426870
f 83/218/83 84/217/84 91/229/91
f 83/218/83 91/229/91 90/227/90
vt 0.035050 1.426870
f 84/217/84 82/216/82 92/230/92
f 84/217/84 92/230/92 91/229/91
f 82/216/82 81/215/81 89/228/89
f 82/216/82 89/228/89 92/230/92
f 97/215/97 98/216/98 99/217/99
f 97/215/97 99/217/99 100/218/100
f 101/219/101 102/220/102 98/221/98
f 101/219/101 98/221/98 97/222/97
f 102/223/102 103/224/103 99/225/99
f 102/223/102 99/225/99 98/226/98
f 103/220/103 104/219/104 100/222/100
f 103/220/103 100/222/100 99/221/99
f 104/224/104 101/223/101 97/226/97
f 104/224/104 97/226/97 100/225/100
f 101/215/101 104/218/104 94/227/94
f 101/215/101 94/227/94 93/228/93
f 104/218/104 103/217/103 95/229/95
f 104/218/104 95/229/95 94/227/94
f 103/217/103 102/216/102 96/230/96
f 103/217/103 96/230/96 95/229/95
f 102/216/102 101/215/101 93/228/93
f 102/216/102 93/228/93 96/230/96
vt 0.692257 -0.000386
vt 1.000202 -0.000386
vt 1.000202 0.996935
f 89/231/89 90/232/90 91/233/91
vt 0.692257 0.996935
f 89/231/89 91/233/91 92/234/92
f 93/231/93 94/232/94 95/233/95
f 93/231/93 95/233/95 96/234/96
# 190 faces, 234 coords texture

# End of File
