####
#
# OBJ File Generated by Meshlab
#
####
# Object aws_Trackline_01_visual.obj
#
# Vertices: 204
# Faces: 102
#
####
mtllib ./aws_Trackline_01_visual.obj.mtl

vn 0.000000 0.000000 1.628228
v -1660.755371 -1493.576050 0.000000
vn 0.000000 0.000000 1.685154
v -1966.436523 -1458.307373 0.000000
vn 0.000000 0.000000 1.456439
v -1969.375488 -1470.901367 0.000000
vn 0.000000 0.000000 1.513364
v -1661.494141 -1506.423950 0.000000
vn 0.000000 0.000000 1.682259
v -2246.794434 -1357.992065 0.000000
vn 0.000000 0.000000 1.459334
v -2252.477051 -1369.604492 0.000000
vn 0.000000 0.000000 1.680210
v -2494.198730 -1200.612183 0.000000
vn 0.000000 0.000000 1.461383
v -2502.285645 -1210.695068 0.000000
vn 0.000000 0.000000 1.680248
v -2700.612061 -994.198608 0.000000
vn 0.000000 0.000000 1.461346
v -2710.694580 -1002.285645 0.000000
vn 0.000000 0.000000 1.682349
v -2857.992676 -746.794189 0.000000
vn 0.000000 0.000000 1.459244
v -2869.604492 -752.477539 0.000000
vn 0.000000 0.000000 1.685251
v -2958.307617 -466.436035 0.000000
vn 0.000000 0.000000 1.456342
v -2970.901367 -469.375793 0.000000
vn 0.000000 0.000000 1.628297
v -2993.576172 -160.754791 0.000000
vn 0.000000 0.000000 1.513295
v -3006.423828 -161.494354 0.000000
vn 0.000000 0.000000 1.628165
v -2993.576172 160.755157 0.000000
vn 0.000000 0.000000 1.513427
v -3006.423828 161.494720 0.000000
vn 0.000000 0.000000 1.685090
v -2958.307617 466.436249 0.000000
vn 0.000000 0.000000 1.456503
v -2970.901367 469.376007 0.000000
vn 0.000000 0.000000 1.682188
v -2857.992432 746.794067 0.000000
vn 0.000000 0.000000 1.459405
v -2869.604248 752.477417 0.000000
vn 0.000000 0.000000 1.680182
v -2700.612305 994.198853 0.000000
vn 0.000000 0.000000 1.461409
v -2710.694824 1002.285889 0.000000
vn 0.000000 0.000000 1.680217
v -2494.198975 1200.612183 0.000000
vn 0.000000 0.000000 1.461376
v -2502.285889 1210.695190 0.000000
vn 0.000000 0.000000 1.682247
v -2246.795166 1357.992432 0.000000
vn 0.000000 0.000000 1.459345
v -2252.477295 1369.604736 0.000000
vn 0.000000 0.000000 1.685185
v -1966.437012 1458.307251 0.000000
vn 0.000000 0.000000 1.456407
v -1969.375977 1470.901245 0.000000
vn 0.000000 0.000000 1.628253
v -1660.755615 1493.576050 0.000000
vn 0.000000 0.000000 1.513339
v -1661.494629 1506.423950 0.000000
vn 0.000000 0.000000 1.628234
v 1660.755371 1493.576050 0.000000
vn 0.000000 0.000000 1.513358
v 1661.494141 1506.423950 0.000000
vn 0.000000 0.000000 1.685186
v 1966.436768 1458.307495 0.000000
vn 0.000000 0.000000 1.456406
v 1969.375732 1470.901489 0.000000
vn 0.000000 0.000000 1.682265
v 2246.794922 1357.992310 0.000000
vn 0.000000 0.000000 1.459329
v 2252.477295 1369.604614 0.000000
vn 0.000000 0.000000 1.680217
v 2494.199219 1200.612427 0.000000
vn 0.000000 0.000000 1.461375
v 2502.286133 1210.695435 0.000000
vn 0.000000 0.000000 1.680184
v 2700.612549 994.199341 0.000000
vn 0.000000 0.000000 1.461410
v 2710.695068 1002.286377 0.000000
vn 0.000000 0.000000 1.682198
v 2857.992920 746.794800 0.000000
vn 0.000000 0.000000 1.459396
v 2869.604736 752.478027 0.000000
vn 0.000000 0.000000 1.685090
v 2958.307861 466.436646 0.000000
vn 0.000000 0.000000 1.456501
v 2970.901611 469.376373 0.000000
vn 0.000000 0.000000 1.628167
v 2993.576172 160.755112 0.000000
vn 0.000000 0.000000 1.513425
v 3006.423828 161.494644 0.000000
vn 0.000000 0.000000 1.628297
v 2993.576172 -160.754089 0.000000
vn 0.000000 0.000000 1.513296
v 3006.423828 -161.493652 0.000000
vn 0.000000 0.000000 1.685252
v 2958.307617 -466.435669 0.000000
vn 0.000000 0.000000 1.456342
v 2970.901367 -469.375427 0.000000
vn 0.000000 0.000000 1.682341
v 2857.992432 -746.794189 0.000000
vn 0.000000 0.000000 1.459254
v 2869.604248 -752.477417 0.000000
vn 0.000000 0.000000 1.680256
v 2700.612793 -994.198608 0.000000
vn 0.000000 0.000000 1.461336
v 2710.695312 -1002.285767 0.000000
vn 0.000000 0.000000 1.680215
v 2494.199463 -1200.612183 0.000000
vn 0.000000 0.000000 1.461376
v 2502.286377 -1210.695190 0.000000
vn 0.000000 0.000000 1.682272
v 2246.795410 -1357.992310 0.000000
vn 0.000000 0.000000 1.459321
v 2252.477783 -1369.604614 0.000000
vn 0.000000 0.000000 1.685152
v 1966.437378 -1458.307251 0.000000
vn 0.000000 0.000000 1.456440
v 1969.376343 -1470.901245 0.000000
vn 0.000000 0.000000 1.628228
v 1660.755737 -1493.576050 0.000000
vn 0.000000 0.000000 1.513364
v 1661.494507 -1506.423950 0.000000
vn 0.000000 0.000000 1.622778
v 1503.256592 1506.423950 0.000000
vn 0.000000 0.000000 1.524293
v 1345.019043 1506.423950 0.000000
vn 0.000000 0.000000 1.611837
v 1186.781494 1506.423950 0.000000
vn 0.000000 0.000000 1.535220
v 1028.543945 1506.423950 0.000000
vn 0.000000 0.000000 1.600901
v 870.306335 1506.423950 0.000000
vn 0.000000 0.000000 1.546160
v 712.068787 1506.423950 0.000000
vn 0.000000 0.000000 1.589940
v 553.831177 1506.423950 0.000000
vn 0.000000 0.000000 1.557125
v 395.593628 1506.423950 0.000000
vn 0.000000 0.000000 1.578996
v 237.356079 1506.423950 0.000000
vn 0.000000 0.000000 1.568069
v 79.118530 1506.423950 0.000000
vn 0.000000 0.000000 1.568041
v -79.119019 1506.423950 0.000000
vn 0.000000 0.000000 1.579024
v -237.356567 1506.423950 0.000000
vn 0.000000 0.000000 1.557088
v -395.594238 1506.423950 0.000000
vn 0.000000 0.000000 1.589986
v -553.831787 1506.423950 0.000000
vn 0.000000 0.000000 1.546137
v -712.069336 1506.423950 0.000000
vn 0.000000 0.000000 1.600929
v -870.306885 1506.423950 0.000000
vn 0.000000 0.000000 1.535191
v -1028.544434 1506.423950 0.000000
vn 0.000000 0.000000 1.611867
v -1186.781982 1506.423950 0.000000
vn 0.000000 0.000000 1.524255
v -1345.019531 1506.423950 0.000000
vn 0.000000 0.000000 1.622797
v -1503.257080 1506.423950 0.000000
vn 0.000000 0.000000 1.518796
v -1502.588379 1493.576050 0.000000
vn 0.000000 0.000000 1.617338
v -1344.421143 1493.576050 0.000000
vn 0.000000 0.000000 1.529727
v -1186.254028 1493.576050 0.000000
vn 0.000000 0.000000 1.606401
v -1028.086792 1493.576050 0.000000
vn 0.000000 0.000000 1.540663
v -869.919617 1493.576050 0.000000
vn 0.000000 0.000000 1.595456
v -711.752441 1493.576050 0.000000
vn 0.000000 0.000000 1.551607
v -553.585205 1493.576050 0.000000
vn 0.000000 0.000000 1.584506
v -395.418091 1493.576050 0.000000
vn 0.000000 0.000000 1.562569
v -237.250854 1493.576050 0.000000
vn 0.000000 0.000000 1.573552
v -79.083618 1493.576050 0.000000
vn 0.000000 0.000000 1.573523
v 79.083496 1493.576050 0.000000
vn 0.000000 0.000000 1.562597
v 237.250732 1493.576050 0.000000
vn 0.000000 0.000000 1.584468
v 395.417969 1493.576050 0.000000
vn 0.000000 0.000000 1.551654
v 553.585205 1493.576050 0.000000
vn 0.000000 0.000000 1.595433
v 711.752197 1493.576050 0.000000
vn 0.000000 0.000000 1.540691
v 869.919434 1493.576050 0.000000
vn 0.000000 0.000000 1.606373
v 1028.086670 1493.576050 0.000000
vn 0.000000 0.000000 1.529755
v 1186.253906 1493.576050 0.000000
vn 0.000000 0.000000 1.617299
v 1344.421143 1493.576050 0.000000
vn 0.000000 0.000000 1.518815
v 1502.588135 1493.576050 0.000000
vn 0.000000 0.000000 1.576017
v 201.106506 -1506.423950 0.000000
vn 0.000000 0.000000 1.560351
v 347.145325 -1506.423950 0.000000
vn 0.000000 0.000000 1.586474
v 493.184113 -1506.423950 0.000000
vn 0.000000 0.000000 1.549892
v 639.222900 -1506.423950 0.000000
vn 0.000000 0.000000 1.596923
v 785.261719 -1506.423950 0.000000
vn 0.000000 0.000000 1.539443
v 931.300537 -1506.423950 0.000000
vn 0.000000 0.000000 1.607378
v 1077.339355 -1506.423950 0.000000
vn 0.000000 0.000000 1.529006
v 1223.378052 -1506.423950 0.000000
vn 0.000000 0.000000 1.617802
v 1369.416870 -1506.423950 0.000000
vn 0.000000 0.000000 1.518578
v 1515.455688 -1506.423950 0.000000
vn 0.000000 0.000000 1.623014
v 1514.784180 -1493.576050 0.000000
vn 0.000000 0.000000 1.523791
v 1368.812500 -1493.576050 0.000000
vn 0.000000 0.000000 1.612586
v 1222.840820 -1493.576050 0.000000
vn 0.000000 0.000000 1.534214
v 1076.869141 -1493.576050 0.000000
vn 0.000000 0.000000 1.602149
v 930.897583 -1493.576050 0.000000
vn 0.000000 0.000000 1.544669
v 784.925964 -1493.576050 0.000000
vn 0.000000 0.000000 1.591701
v 638.954285 -1493.576050 0.000000
vn 0.000000 0.000000 1.555118
v 492.982666 -1493.576050 0.000000
vn 0.000000 0.000000 1.581243
v 347.011108 -1493.576050 0.000000
vn 0.000000 0.000000 1.565576
v 201.039429 -1493.576050 0.000000
vn 0.000000 0.000000 1.565566
v -201.039001 -1493.576050 0.000000
vn 0.000000 0.000000 1.581256
v -347.010620 -1493.576050 0.000000
vn 0.000000 0.000000 1.555109
v -492.982269 -1493.576050 0.000000
vn 0.000000 0.000000 1.591705
v -638.953918 -1493.576050 0.000000
vn 0.000000 0.000000 1.544665
v -784.925537 -1493.576050 0.000000
vn 0.000000 0.000000 1.602154
v -930.897156 -1493.576050 0.000000
vn 0.000000 0.000000 1.534224
v -1076.868896 -1493.576050 0.000000
vn 0.000000 0.000000 1.612595
v -1222.840454 -1493.576050 0.000000
vn 0.000000 0.000000 1.523781
v -1368.812012 -1493.576050 0.000000
vn 0.000000 0.000000 1.623024
v -1514.783691 -1493.576050 0.000000
vn 0.000000 0.000000 1.518568
v -1515.455322 -1506.423950 0.000000
vn 0.000000 0.000000 1.617812
v -1369.416504 -1506.423950 0.000000
vn 0.000000 0.000000 1.528996
v -1223.377808 -1506.423950 0.000000
vn 0.000000 0.000000 1.607368
v -1077.338989 -1506.423950 0.000000
vn 0.000000 0.000000 1.539438
v -931.300171 -1506.423950 0.000000
vn 0.000000 0.000000 1.596927
v -785.261353 -1506.423950 0.000000
vn 0.000000 0.000000 1.549887
v -639.222595 -1506.423950 0.000000
vn 0.000000 0.000000 1.586484
v -493.183838 -1506.423950 0.000000
vn 0.000000 0.000000 1.560336
v -347.145020 -1506.423950 0.000000
vn 0.000000 0.000000 1.576026
v -201.106201 -1506.423950 0.000000
vn 0.000000 0.000000 1.599486
v 1813.596558 -1475.941650 0.000000
vn 0.000000 0.000000 1.542105
v 1815.435425 -1488.662598 0.000000
vn 0.000000 0.000000 1.569325
v 2106.616455 -1408.149780 0.000000
vn 0.000000 0.000000 1.572269
v 2110.927002 -1420.252930 0.000000
vn 0.000000 0.000000 1.569749
v 2370.497559 -1279.302246 0.000000
vn 0.000000 0.000000 1.571844
v 2377.382080 -1290.149902 0.000000
vn 0.000000 0.000000 1.570763
v 2597.406250 -1097.405396 0.000000
vn 0.000000 0.000000 1.570832
v 2606.490723 -1106.490479 0.000000
vn 0.000000 0.000000 1.571768
v 2779.302734 -870.496399 0.000000
vn 0.000000 0.000000 1.569826
v 2790.149658 -877.381592 0.000000
vn 0.000000 0.000000 1.572197
v 2908.149902 -606.614929 0.000000
vn 0.000000 0.000000 1.569393
v 2920.252930 -610.926392 0.000000
vn 0.000000 0.000000 1.542042
v 2975.941895 -313.594879 0.000000
vn 0.000000 0.000000 1.599551
v 2988.662598 -315.434540 0.000000
vn 0.000000 0.000000 1.570795
v 2993.576172 0.000504 0.000000
vn 0.000000 0.000000 1.570798
v 3006.423828 0.000488 0.000000
vn 0.000000 0.000000 1.599546
v 2975.941895 313.595886 0.000000
vn 0.000000 0.000000 1.542045
v 2988.662598 315.435486 0.000000
vn 0.000000 0.000000 1.569402
v 2908.150391 606.615723 0.000000
vn 0.000000 0.000000 1.572192
v 2920.253174 610.927185 0.000000
vn 0.000000 0.000000 1.569809
v 2779.302734 870.497070 0.000000
vn 0.000000 0.000000 1.571784
v 2790.149902 877.382202 0.000000
vn 0.000000 0.000000 1.571827
v 2370.497070 1279.302368 0.000000
vn 0.000000 0.000000 1.569766
v 2377.381836 1290.150024 0.000000
vn 0.000000 0.000000 1.570802
v 2597.405762 1097.405884 0.000000
vn 0.000000 0.000000 1.570788
v 2606.490723 1106.490967 0.000000
vn 0.000000 0.000000 1.572250
v 2106.615723 1408.149902 0.000000
vn 0.000000 0.000000 1.569341
v 2110.926514 1420.253052 0.000000
vn 0.000000 0.000000 1.542105
v 1813.596069 1475.941772 0.000000
vn 0.000000 0.000000 1.599487
v 1815.434937 1488.662720 0.000000
vn 0.000000 0.000000 1.572267
v -2106.616211 1408.149780 0.000000
vn 0.000000 0.000000 1.569324
v -2110.926758 1420.252930 0.000000
vn 0.000000 0.000000 1.542097
v -1813.596313 1475.941650 0.000000
vn 0.000000 0.000000 1.599494
v -1815.435303 1488.662598 0.000000
vn 0.000000 0.000000 1.571844
v -2370.497070 1279.302246 0.000000
vn 0.000000 0.000000 1.569750
v -2377.381592 1290.149902 0.000000
vn 0.000000 0.000000 1.570824
v -2597.405762 1097.405518 0.000000
vn 0.000000 0.000000 1.570768
v -2606.490234 1106.490479 0.000000
vn 0.000000 0.000000 1.569814
v -2779.302246 870.496460 0.000000
vn 0.000000 0.000000 1.571779
v -2790.149414 877.381653 0.000000
vn 0.000000 0.000000 1.569398
v -2908.149902 606.615173 0.000000
vn 0.000000 0.000000 1.572194
v -2920.252930 610.926697 0.000000
vn 0.000000 0.000000 1.599550
v -2975.941895 313.595703 0.000000
vn 0.000000 0.000000 1.542042
v -2988.662598 315.435364 0.000000
vn 0.000000 0.000000 1.570796
v -2993.576172 0.000183 0.000000
vn 0.000000 0.000000 1.570796
v -3006.423828 0.000183 0.000000
vn 0.000000 0.000000 1.542039
v -2975.941895 -313.595398 0.000000
vn 0.000000 0.000000 1.599553
v -2988.662598 -315.435089 0.000000
vn 0.000000 0.000000 1.572187
v -2908.150146 -606.615112 0.000000
vn 0.000000 0.000000 1.569405
v -2920.252930 -610.926636 0.000000
vn 0.000000 0.000000 1.571780
v -2779.302246 -870.496399 0.000000
vn 0.000000 0.000000 1.569812
v -2790.149414 -877.381592 0.000000
vn 0.000000 0.000000 1.570795
v -2597.405273 -1097.405396 0.000000
vn 0.000000 0.000000 1.570796
v -2606.490234 -1106.490356 0.000000
vn 0.000000 0.000000 1.569766
v -2370.496582 -1279.302124 0.000000
vn 0.000000 0.000000 1.571828
v -2377.381348 -1290.149780 0.000000
vn 0.000000 0.000000 1.569338
v -2106.615479 -1408.149658 0.000000
vn 0.000000 0.000000 1.572254
v -2110.926270 -1420.252930 0.000000
vn 0.000000 0.000000 1.599486
v -1813.595947 -1475.941650 0.000000
vn 0.000000 0.000000 1.542107
v -1815.434814 -1488.662598 0.000000
# 204 vertices, 0 vertices normals


usemtl material_0
vt 0.110143 11.201931
vt 0.232665 11.204381
vt 0.232665 11.504573
f 203/1/203 204/2/204 4/3/4
vt 0.110143 11.502134
f 203/1/203 4/3/4 1/4/1
vt 0.110143 10.901728
vt 0.110143 10.605562
vt 0.232665 10.608027
f 2/5/2 201/6/201 202/7/202
vt 0.232665 10.904189
f 2/5/2 202/7/202 3/8/3
vt 0.110143 10.309397
vt 0.110143 10.020732
vt 0.232665 10.023202
f 5/9/5 199/10/199 200/11/200
vt 0.232665 10.311865
f 5/9/5 200/11/200 6/12/6
vt 0.110143 9.732067
vt 0.110143 9.447459
vt 0.232665 9.449930
f 7/13/7 197/14/197 198/15/198
vt 0.232665 9.734539
f 7/13/7 198/15/198 8/16/8
vt 0.110143 9.162851
vt 0.110143 8.879745
vt 0.232665 8.882215
f 9/17/9 195/18/195 196/19/196
vt 0.232665 9.165322
f 9/17/9 196/19/196 10/20/10
vt 0.110143 8.596640
vt 0.110143 8.312506
vt 0.232665 8.314974
f 11/21/11 193/22/193 194/23/194
vt 0.232665 8.599107
f 11/21/11 194/23/194 12/24/12
vt 0.110143 8.028372
vt 0.110143 7.739410
vt 0.232665 7.741879
f 13/25/13 191/26/191 192/27/192
vt 0.232665 8.030840
f 13/25/13 192/27/192 14/28/14
vt 0.110143 7.153026
vt 0.232665 7.155496
vt 0.232665 7.452919
f 189/29/189 190/30/190 16/31/16
vt 0.110143 7.450449
f 189/29/189 16/31/16 15/32/15
vt 0.110143 6.561055
vt 0.232665 6.563524
vt 0.232665 6.858072
f 187/33/187 188/34/188 18/35/18
vt 0.110143 6.855602
f 187/33/187 18/35/18 17/36/17
vt 0.110143 6.266508
vt 0.110143 5.985422
vt 0.232665 5.987891
f 19/37/19 185/38/185 186/39/186
vt 0.232665 6.268976
f 19/37/19 186/39/186 20/40/20
vt 0.110143 5.704336
vt 0.110143 5.432586
vt 0.232665 5.435056
f 21/41/21 183/42/183 184/43/184
vt 0.232665 5.706806
f 21/41/21 184/43/184 22/44/22
vt 0.110143 5.160836
vt 0.110143 4.894586
vt 0.232665 4.897055
f 23/45/23 181/46/181 182/47/182
vt 0.232665 5.163305
f 23/45/23 182/47/182 24/48/24
vt 0.110143 4.628336
vt 0.110143 4.364287
vt 0.232665 4.366755
f 25/49/25 179/50/179 180/51/180
vt 0.232665 4.630805
f 25/49/25 180/51/180 26/52/26
vt 0.110143 4.100239
vt 0.110143 3.834936
vt 0.232665 3.837404
f 27/53/27 175/54/175 176/55/176
vt 0.232665 4.102706
f 27/53/27 176/55/176 28/56/28
vt 0.110143 3.569633
vt 0.110143 3.296886
vt 0.232665 3.299432
f 29/57/29 177/58/177 178/59/178
vt 0.232665 3.572103
f 29/57/29 178/59/178 30/60/30
vt 0.232665 0.496277
vt 0.110143 0.494620
vt 0.110143 0.241668
f 75/61/75 94/62/94 95/63/95
vt 0.232665 0.243229
f 75/61/75 95/63/95 74/64/74
vt 0.232665 -11.801818
vt 0.110143 -11.802369
vt 0.110143 -12.024594
f 110/65/110 119/66/119 120/67/120
vt 0.232665 -12.024099
f 110/65/110 120/67/120 109/68/109
vt 0.110143 12.913413
vt 0.232665 12.916327
vt 0.232665 13.198678
f 130/69/130 139/70/139 140/71/140
vt 0.110143 13.195669
f 130/69/130 140/71/140 129/72/129
vt 0.232665 2.773713
vt 0.232665 3.026761
vt 0.110143 3.024140
f 84/73/84 32/74/32 31/75/31
vt 0.110143 2.771188
f 84/73/84 31/75/31 85/76/85
vt 0.232665 2.267616
vt 0.232665 2.520664
vt 0.110143 2.518236
f 82/77/82 83/78/83 86/79/86
vt 0.110143 2.265284
f 82/77/82 86/79/86 87/80/87
vt 0.232665 1.761519
vt 0.232665 2.014568
vt 0.110143 2.012332
f 80/81/80 81/82/81 88/83/88
vt 0.110143 1.759380
f 80/81/80 88/83/88 89/84/89
vt 0.232665 1.508471
vt 0.110143 1.506428
vt 0.110143 1.253476
f 79/85/79 90/86/90 91/87/91
vt 0.232665 1.255422
f 79/85/79 91/87/91 78/88/78
vt 0.232665 1.002374
vt 0.110143 1.000524
vt 0.110143 0.747572
f 77/89/77 92/90/92 93/91/93
vt 0.232665 0.749326
f 77/89/77 93/91/93 76/92/76
vt 0.110143 -2.287853
vt 0.232665 -2.287255
vt 0.232665 -2.034207
f 33/93/33 34/94/34 65/95/65
vt 0.110143 -2.034901
f 33/93/33 65/95/65 104/96/104
vt 0.110143 -1.781949
vt 0.232665 -1.781158
vt 0.232665 -1.528110
f 103/97/103 66/98/66 67/99/67
vt 0.110143 -1.528997
f 103/97/103 67/99/67 102/100/102
vt 0.110143 -1.276044
vt 0.232665 -1.275061
vt 0.232665 -1.022013
f 101/101/101 68/102/68 69/103/69
vt 0.110143 -1.023093
f 101/101/101 69/103/69 100/104/100
vt 0.110143 -0.770140
vt 0.232665 -0.768965
vt 0.232665 -0.515916
f 99/105/99 70/106/70 71/107/71
vt 0.110143 -0.517189
f 99/105/99 71/107/71 98/108/98
vt 0.110143 -0.264236
vt 0.232665 -0.262868
vt 0.232665 -0.009820
f 97/109/97 72/110/72 73/111/73
vt 0.110143 -0.011284
f 97/109/97 73/111/73 96/112/96
vt 0.232665 -11.134974
vt 0.232665 -10.912691
vt 0.110143 -10.913467
f 113/113/113 114/114/114 115/115/115
vt 0.110143 -11.135693
f 113/113/113 115/115/115 116/116/116
vt 0.232665 -11.579536
vt 0.232665 -11.357255
vt 0.110143 -11.357918
f 111/117/111 112/118/112 117/119/117
vt 0.110143 -11.580144
f 111/117/111 117/119/117 118/120/118
vt 0.110143 -12.913496
vt 0.232665 -12.913226
vt 0.232665 -12.690945
f 124/121/124 105/122/105 106/123/106
vt 0.110143 -12.691271
f 124/121/124 106/123/106 123/124/123
vt 0.110143 -12.469045
vt 0.232665 -12.468662
vt 0.232665 -12.246381
f 122/125/122 107/126/107 108/127/108
vt 0.110143 -12.246819
f 122/125/122 108/127/108 121/128/121
vt 0.110143 11.784390
vt 0.232665 11.786923
vt 0.232665 12.069275
f 134/129/134 135/130/135 136/131/136
vt 0.110143 12.066646
f 134/129/134 136/131/136 133/132/133
vt 0.110143 12.348902
vt 0.232665 12.351625
vt 0.232665 12.633976
f 132/133/132 137/134/137 138/135/138
vt 0.110143 12.631157
f 132/133/132 138/135/138 131/136/131
vt 0.232665 14.328081
vt 0.110143 14.324692
vt 0.110143 14.042437
f 144/137/144 125/138/125 126/139/126
vt 0.232665 14.045731
f 144/137/144 126/139/126 143/140/143
vt 0.232665 13.763379
vt 0.110143 13.760180
vt 0.110143 13.477924
f 142/141/142 127/142/127 128/143/128
vt 0.232665 13.481029
f 142/141/142 128/143/128 141/144/141
vt 0.110143 -10.691242
vt 0.232665 -10.690410
vt 0.232665 -10.395700
f 63/145/63 64/146/64 146/147/146
vt 0.110143 -10.396576
f 63/145/63 146/147/146 145/148/145
vt 0.110143 -10.101909
vt 0.232665 -10.100990
vt 0.232665 -9.811742
f 61/149/61 62/150/62 148/151/148
vt 0.110143 -9.812662
f 61/149/61 148/151/148 147/152/147
vt 0.110143 -9.523415
vt 0.232665 -9.522493
vt 0.232665 -9.237356
f 59/153/59 60/154/60 150/155/150
vt 0.110143 -9.241102
f 59/153/59 150/155/150 149/156/149
vt 0.110143 -8.958789
vt 0.232665 -8.952220
vt 0.232665 -8.672894
f 57/157/57 58/158/58 152/159/152
vt 0.110143 -8.679462
f 57/157/57 152/159/152 151/160/151
vt 0.110143 -8.400136
vt 0.232665 -8.393567
vt 0.232665 -8.117628
f 55/161/55 56/162/56 154/163/154
vt 0.110143 -8.121371
f 55/161/55 154/163/154 153/164/153
vt 0.110143 -7.842607
vt 0.232665 -7.841689
vt 0.232665 -7.561188
f 53/165/53 54/166/54 156/167/156
vt 0.110143 -7.562106
f 53/165/53 156/167/156 155/168/155
vt 0.110143 -7.281605
vt 0.232665 -7.280686
vt 0.232665 -6.995091
f 51/169/51 52/170/52 158/171/158
vt 0.110143 -6.996009
f 51/169/51 158/171/158 157/172/157
vt 0.110143 -6.710414
vt 0.232665 -6.709496
vt 0.232665 -6.414800
f 49/173/49 50/174/50 160/175/160
vt 0.110143 -6.415717
f 49/173/49 160/175/160 159/176/159
vt 0.110143 -6.121020
vt 0.232665 -6.120103
vt 0.232665 -5.827199
f 47/177/47 48/178/48 162/179/162
vt 0.110143 -5.829772
f 47/177/47 162/179/162 161/180/161
vt 0.110143 -5.538525
vt 0.232665 -5.534296
vt 0.232665 -5.254609
f 45/181/45 46/182/46 164/183/164
vt 0.110143 -5.258838
f 45/181/45 164/183/164 163/184/163
vt 0.110143 -4.979151
vt 0.232665 -4.974921
vt 0.232665 -4.704334
f 43/185/43 44/186/44 166/187/166
vt 0.110143 -4.706909
f 43/185/43 166/187/166 165/188/165
vt 0.110143 -3.902270
vt 0.232665 -3.901351
vt 0.232665 -3.636060
f 39/189/39 40/190/40 168/191/168
vt 0.110143 -3.636980
f 39/189/39 168/191/168 167/192/167
vt 0.110143 -4.434667
vt 0.232665 -4.433748
vt 0.232665 -4.167549
f 41/193/41 42/194/42 170/195/170
vt 0.110143 -4.168468
f 41/193/41 170/195/170 169/196/169
vt 0.110143 -3.371690
vt 0.232665 -3.370770
vt 0.232665 -3.103338
f 37/197/37 38/198/38 172/199/172
vt 0.110143 -3.104257
f 37/197/37 172/199/172 171/200/171
vt 0.110143 -2.836823
vt 0.232665 -2.835906
vt 0.232665 -2.561581
f 35/201/35 36/202/36 174/203/174
vt 0.110143 -2.562338
f 35/201/35 174/203/174 173/204/173
# 102 faces, 204 coords texture

# End of File
