####
#
# OBJ File Generated by Meshlab
#
####
# Object aws_Fence_01_visual.obj
#
# Vertices: 112
# Faces: 208
#
####
mtllib ./aws_Fence_01_visual.obj.mtl

vn 1.570799 -1.570796 -1.570808
v -15.087568 -390.720947 50.936008
vn -1.570796 -1.570796 -1.570796
v -17.476507 -390.720947 50.936008
vn 1.570796 -1.570796 1.570796
v -15.499189 -390.720947 91.017120
vn -1.570799 -1.570796 1.570803
v -17.476507 -390.720947 91.017120
vn 1.570796 1.570796 -1.570796
v -15.087526 390.720947 50.935986
vn -1.570799 1.570796 -1.570808
v -17.476465 390.720947 50.935986
vn 1.570799 1.570796 1.570803
v -15.499147 390.720947 91.017090
vn -1.570796 1.570797 1.570796
v -17.476465 390.720947 91.017090
vn 3.133310 -3.244333 -0.161100
v -15.087568 -390.720947 58.062614
vn 3.007721 -2.709171 -0.607445
v -11.070494 -390.720947 70.061646
vn 3.131949 -3.252495 0.173849
v -15.499189 -390.720947 83.890511
vn -3.133310 -3.038853 -0.161100
v -17.476507 -390.720947 83.890511
vn -3.007946 -3.557085 -0.634036
v -13.459435 -390.720947 71.891479
vn -3.133307 -3.038853 0.161099
v -17.476507 -390.720947 58.062614
vn -3.133310 3.038853 0.161100
v -17.476465 390.720947 58.062592
vn -3.007944 3.557085 -0.634036
v -13.459391 390.720947 71.891457
vn -3.133307 3.038853 -0.161099
v -17.476465 390.720947 83.890488
vn 3.131942 3.252496 0.173850
v -15.499147 390.720947 83.890488
vn 3.007736 2.709171 -0.607444
v -11.070450 390.720947 70.061623
vn 3.133306 3.244334 -0.161101
v -15.087526 390.720947 58.062592
vn 1.570796 1.570796 -4.712389
v -8.454744 -281.440735 0.000000
vn -1.570796 1.570797 -4.712389
v 13.407754 -281.440735 0.000000
vn -1.570796 -1.570796 -4.712389
v 13.407752 -291.440735 0.000000
vn 1.570796 -1.570797 -4.712389
v -8.454746 -291.440735 0.000000
vn 1.570796 -1.570797 4.712389
v -8.454746 -291.440735 125.000000
vn -1.570796 -1.570796 4.712389
v 13.407752 -291.440735 125.000000
vn -1.570796 1.570797 4.712389
v 13.407754 -281.440735 125.000000
vn 1.570796 1.570796 4.712389
v -8.454744 -281.440735 125.000000
vn -1.570796 -1.570796 -1.570796
v 13.407750 -301.440735 0.000000
vn 1.570796 -1.570797 -1.570796
v 17.476500 -301.440735 0.000000
vn 1.570796 -1.570797 1.570797
v 17.476500 -301.440735 125.000000
vn -1.570796 -1.570797 1.570796
v 13.407750 -301.440735 125.000000
vn 1.570796 -1.570797 1.570796
v -8.454748 -301.440735 125.000000
vn -1.570796 -1.570797 1.570796
v -12.523500 -301.440735 125.000000
vn -1.570796 -1.570796 -1.570796
v -12.523500 -301.440735 0.000000
vn 1.570796 -1.570797 -1.570796
v -8.454748 -301.440735 0.000000
vn 1.570796 1.570796 -1.570796
v -8.454744 -271.440735 0.000000
vn -1.570796 1.570797 -1.570797
v -12.523495 -271.440735 0.000000
vn -1.570796 1.570797 1.570797
v -12.523495 -271.440735 125.000000
vn 1.570796 1.570797 1.570796
v -8.454744 -271.440735 125.000000
vn -1.570796 1.570797 1.570796
v 13.407756 -271.440735 125.000000
vn 1.570796 1.570797 1.570796
v 17.476505 -271.440735 125.000000
vn 1.570796 1.570796 -1.570796
v 17.476505 -271.440735 0.000000
vn -1.570796 1.570797 -1.570796
v 13.407756 -271.440735 0.000000
vn 2.985450 -2.709170 0.708916
v -11.101234 -390.720947 71.877289
vn -3.007944 -3.557085 0.634035
v -13.459435 -390.720947 70.061646
vn -3.007946 3.557085 0.634037
v -13.459391 390.720947 70.061623
vn 2.985433 2.709170 0.708916
v -11.101191 390.720947 71.877266
vn 2.931739 -3.244332 -1.117335
v -13.919565 -390.720947 63.603752
vn 2.896548 -3.252495 1.203868
v -14.242231 -390.720947 78.390427
vn -2.931739 -3.038854 -1.117335
v -16.308504 -390.720947 78.349373
vn -2.931747 -3.038853 1.117337
v -16.308504 -390.720947 63.603756
vn -2.931739 3.038853 1.117336
v -16.308462 390.720947 63.603733
vn -2.931746 3.038854 -1.117339
v -16.308462 390.720947 78.349350
vn 2.896551 3.252496 1.203868
v -14.242188 390.720947 78.390404
vn 2.931747 3.244333 -1.117337
v -13.919521 390.720947 63.603733
vn 3.057105 -3.351606 -0.644400
v -14.795568 -390.720947 60.894733
vn 3.042836 -3.369140 0.695393
v -15.184950 -390.720947 81.068657
vn -3.057105 -2.931579 -0.644401
v -17.184507 -390.720947 81.058388
vn -3.057105 -2.931580 0.644399
v -17.184507 -390.720947 60.894733
vn -3.057105 2.931580 0.644400
v -17.184465 390.720947 60.894714
vn -3.057105 2.931579 -0.644400
v -17.184465 390.720947 81.058365
vn 3.042837 3.369137 0.695392
v -15.184904 390.720947 81.068634
vn 3.057105 3.351604 -0.644400
v -14.795523 390.720947 60.894714
vn -1.570796 1.570797 -4.712389
v 13.407754 7.874420 0.000000
vn -1.570796 -1.570796 -4.712389
v 13.407752 -2.125580 0.000000
vn 1.570796 -1.570797 -4.712389
v -8.454746 -2.125580 0.000000
vn 1.570796 1.570796 -4.712389
v -8.454744 7.874420 0.000000
vn -1.570796 -1.570796 4.712389
v 13.407752 -2.125580 125.000000
vn -1.570796 1.570797 4.712389
v 13.407754 7.874420 125.000000
vn 1.570796 1.570796 4.712389
v -8.454744 7.874420 125.000000
vn 1.570796 -1.570797 4.712389
v -8.454746 -2.125580 125.000000
vn 1.570796 -1.570797 -1.570796
v 17.476500 -12.125580 0.000000
vn 1.570796 -1.570797 1.570797
v 17.476500 -12.125580 125.000000
vn -1.570796 -1.570797 1.570796
v 13.407750 -12.125580 125.000000
vn -1.570796 -1.570796 -1.570796
v 13.407750 -12.125580 0.000000
vn -1.570796 -1.570797 1.570796
v -12.523500 -12.125580 125.000000
vn -1.570796 -1.570796 -1.570796
v -12.523500 -12.125580 0.000000
vn 1.570796 -1.570797 -1.570796
v -8.454748 -12.125580 0.000000
vn 1.570796 -1.570797 1.570796
v -8.454748 -12.125580 125.000000
vn -1.570796 1.570797 -1.570797
v -12.523495 17.874420 0.000000
vn -1.570796 1.570797 1.570797
v -12.523495 17.874420 125.000000
vn 1.570796 1.570797 1.570796
v -8.454744 17.874420 125.000000
vn 1.570796 1.570796 -1.570796
v -8.454744 17.874420 0.000000
vn 1.570796 1.570797 1.570796
v 17.476505 17.874420 125.000000
vn 1.570796 1.570796 -1.570796
v 17.476505 17.874420 0.000000
vn -1.570796 1.570797 -1.570796
v 13.407756 17.874420 0.000000
vn -1.570796 1.570797 1.570796
v 13.407756 17.874420 125.000000
vn -1.570796 1.570797 -4.712389
v 13.407754 247.371796 0.000000
vn -1.570796 -1.570796 -4.712389
v 13.407752 237.371796 0.000000
vn 1.570796 -1.570797 -4.712389
v -8.454746 237.371796 0.000000
vn 1.570796 1.570796 -4.712389
v -8.454744 247.371796 0.000000
vn -1.570796 -1.570796 4.712389
v 13.407752 237.371796 125.000000
vn -1.570796 1.570797 4.712389
v 13.407754 247.371796 125.000000
vn 1.570796 1.570796 4.712389
v -8.454744 247.371796 125.000000
vn 1.570796 -1.570797 4.712389
v -8.454746 237.371796 125.000000
vn 1.570796 -1.570797 -1.570796
v 17.476500 227.371796 0.000000
vn 1.570796 -1.570797 1.570797
v 17.476500 227.371796 125.000000
vn -1.570796 -1.570797 1.570796
v 13.407750 227.371796 125.000000
vn -1.570796 -1.570796 -1.570796
v 13.407750 227.371796 0.000000
vn -1.570796 -1.570797 1.570796
v -12.523500 227.371796 125.000000
vn -1.570796 -1.570796 -1.570796
v -12.523500 227.371796 0.000000
vn 1.570796 -1.570797 -1.570796
v -8.454748 227.371796 0.000000
vn 1.570796 -1.570797 1.570796
v -8.454748 227.371796 125.000000
vn -1.570796 1.570797 -1.570797
v -12.523495 257.371796 0.000000
vn -1.570796 1.570797 1.570797
v -12.523495 257.371796 125.000000
vn 1.570796 1.570797 1.570796
v -8.454744 257.371796 125.000000
vn 1.570796 1.570796 -1.570796
v -8.454744 257.371796 0.000000
vn 1.570796 1.570797 1.570796
v 17.476505 257.371796 125.000000
vn 1.570796 1.570796 -1.570796
v 17.476505 257.371796 0.000000
vn -1.570796 1.570797 -1.570796
v 13.407756 257.371796 0.000000
vn -1.570796 1.570797 1.570796
v 13.407756 257.371796 125.000000
# 112 vertices, 0 vertices normals


usemtl material_0
vt 0.151242 0.519599
vt 0.154298 0.519599
vt 0.157942 0.527859
f 10/1/10 46/2/46 52/3/52
vt 0.154886 0.527859
f 10/1/10 52/3/52 49/4/49
vt 0.160022 0.519599
vt 0.156967 0.519599
vt 0.160610 0.527859
f 47/5/47 19/6/19 56/7/56
vt 0.163666 0.527859
f 47/5/47 56/7/56 53/8/53
vt 0.111171 0.999267
vt 0.114225 0.999267
vt 0.114225 0.000500
f 1/9/1 2/10/2 6/11/6
vt 0.111172 0.000500
f 1/9/1 6/11/6 5/12/5
vt 0.082625 0.000500
vt 0.082625 0.999480
vt 0.090881 0.999480
f 46/13/46 47/14/47 53/15/53
vt 0.090881 0.000500
f 46/13/46 53/15/53 52/16/52
vt 0.121332 0.999267
vt 0.118804 0.999267
vt 0.118804 0.000500
f 4/17/4 3/18/3 7/19/7
vt 0.121332 0.000500
f 4/17/4 7/19/7 8/20/8
vt 0.024969 0.000500
vt 0.024969 0.999500
vt 0.016643 0.999500
f 45/21/45 48/22/48 55/23/55
vt 0.016643 0.000500
f 45/21/45 55/23/55 50/24/50
vt 0.156907 0.492797
vt 0.159435 0.492797
vt 0.159435 0.501912
f 3/25/3 4/26/4 12/27/12
vt 0.156907 0.501912
f 3/25/3 12/27/12 11/28/11
vt 0.155299 0.508947
vt 0.157942 0.508999
vt 0.154298 0.517259
f 50/29/50 51/30/51 13/31/13
vt 0.151281 0.517277
f 50/29/50 13/31/13 45/32/45
vt 0.159435 0.544061
vt 0.156380 0.544061
vt 0.156380 0.534946
f 2/33/2 1/34/1 9/35/9
vt 0.159435 0.534946
f 2/33/2 9/35/9 14/36/14
vt 0.165160 0.492797
vt 0.162631 0.492797
vt 0.162631 0.501912
f 8/37/8 7/38/7 18/39/18
vt 0.165160 0.501912
f 8/37/8 18/39/18 17/40/17
vt 0.163666 0.508999
vt 0.161023 0.508947
vt 0.157006 0.517277
f 54/41/54 55/42/55 48/43/48
vt 0.160022 0.517259
f 54/41/54 48/43/48 16/44/16
vt 0.162104 0.544061
vt 0.165160 0.544061
vt 0.165160 0.534946
f 5/45/5 6/46/6 15/47/15
vt 0.162104 0.534946
f 5/45/5 15/47/15 20/48/20
vt 0.055836 0.000500
vt 0.055836 0.999480
vt 0.064947 0.999480
f 4/49/4 8/50/8 17/51/17
vt 0.064947 0.000500
f 4/49/4 17/51/17 12/52/12
vt 0.072030 0.000500
vt 0.072030 0.999480
vt 0.080286 0.999480
f 51/53/51 54/54/54 16/55/16
vt 0.080286 0.000500
f 51/53/51 16/55/16 13/56/13
vt 0.107075 0.999480
vt 0.107075 0.000500
vt 0.097965 0.000500
f 6/57/6 2/58/2 14/59/14
vt 0.097965 0.999480
f 6/57/6 14/59/14 15/60/15
vt 0.051741 0.000500
vt 0.051741 0.999500
vt 0.042630 0.999500
f 1/61/1 5/62/5 20/63/20
vt 0.042630 0.000500
f 1/61/1 20/63/20 9/64/9
vt 0.035546 0.000500
vt 0.035546 0.999500
vt 0.027290 0.999500
f 49/65/49 56/66/56 19/67/19
vt 0.027290 0.000500
f 49/65/49 19/67/19 10/68/10
vt 0.000500 0.999500
vt 0.000500 0.000500
vt 0.009611 0.000500
f 7/69/7 3/70/3 11/71/11
vt 0.009611 0.999500
f 7/69/7 11/71/11 18/72/18
vt 0.192645 0.033643
vt 0.205426 0.033643
vt 0.205426 0.005700
f 22/73/22 23/74/23 24/75/24
vt 0.192645 0.005700
f 22/73/22 24/75/24 21/76/21
vt 0.205426 0.077530
vt 0.192645 0.077530
vt 0.192645 0.049587
f 26/77/26 27/78/27 28/79/28
vt 0.205426 0.049587
f 26/77/26 28/79/28 25/80/25
vt 0.150563 0.656896
vt 0.150563 0.816660
vt 0.122620 0.816660
f 23/81/23 26/82/26 25/83/25
vt 0.122620 0.656896
f 23/81/23 25/83/25 24/84/24
vt 0.122620 0.492797
vt 0.122620 0.652561
vt 0.150563 0.652561
f 21/85/21 28/86/28 27/87/27
vt 0.150563 0.492797
f 21/85/21 27/87/27 22/88/22
vt 0.127821 0.000500
vt 0.127821 0.160263
vt 0.122620 0.160263
f 30/89/30 31/90/31 32/91/32
vt 0.122620 0.000500
f 30/89/30 32/91/32 29/92/29
vt 0.135977 0.488462
vt 0.135977 0.328698
vt 0.141177 0.328698
f 34/93/34 35/94/35 36/95/36
vt 0.141177 0.488462
f 34/93/34 36/95/36 33/96/33
vt 0.134069 0.000500
vt 0.134069 0.160263
vt 0.139269 0.160263
f 38/97/38 39/98/39 40/99/40
vt 0.139269 0.000500
f 38/97/38 40/99/40 37/100/37
vt 0.133545 0.160263
vt 0.133545 0.000500
vt 0.128345 0.000500
f 42/101/42 43/102/43 44/103/44
vt 0.128345 0.160263
f 42/101/42 44/103/44 41/104/41
vt 0.218207 0.038843
vt 0.218207 0.033643
f 23/74/23 30/105/30 29/106/29
vt 0.218207 0.082730
f 27/78/27 26/77/26 31/107/31
vt 0.179864 0.082730
f 27/78/27 31/107/31 42/108/42
vt 0.167839 0.488462
vt 0.167839 0.328698
vt 0.155058 0.328698
f 26/109/26 23/110/23 29/111/29
vt 0.155058 0.488462
f 26/109/26 29/111/29 32/112/32
vt 0.218207 0.044387
vt 0.218207 0.049587
f 25/80/25 34/113/34 33/114/33
vt 0.218207 0.000500
f 21/76/21 24/75/24 35/115/35
vt 0.179864 0.000500
f 21/76/21 35/115/35 38/116/38
vt 0.154483 0.328698
vt 0.154483 0.488462
vt 0.141702 0.488462
f 24/117/24 25/118/25 33/119/33
vt 0.141702 0.328698
f 24/117/24 33/119/33 36/120/36
vt 0.179864 0.005700
f 21/76/21 38/116/38 37/121/37
vt 0.139793 0.160263
vt 0.178137 0.160263
vt 0.178137 0.000500
f 34/122/34 39/123/39 38/124/38
vt 0.139793 0.000500
f 34/122/34 38/124/38 35/125/35
vt 0.179864 0.044387
f 25/80/25 28/79/28 39/126/39
f 25/80/25 39/126/39 34/113/34
vt 0.122620 0.324363
vt 0.122620 0.164599
vt 0.135401 0.164599
f 28/127/28 21/128/21 37/129/37
vt 0.135401 0.324363
f 28/127/28 37/129/37 40/130/40
vt 0.179864 0.077530
f 27/78/27 42/108/42 41/131/41
vt 0.135977 0.164599
vt 0.174320 0.164599
vt 0.174320 0.324363
f 30/132/30 43/133/43 42/134/42
vt 0.135977 0.324363
f 30/132/30 42/134/42 31/135/31
vt 0.179864 0.038843
f 23/74/23 22/73/22 43/136/43
f 23/74/23 43/136/43 30/105/30
vt 0.122620 0.328698
vt 0.122620 0.488462
vt 0.135401 0.488462
f 22/137/22 27/138/27 41/139/41
vt 0.135401 0.328698
f 22/137/22 41/139/41 44/140/44
vt 0.179864 0.049587
f 28/79/28 40/141/40 39/126/39
vt 0.218207 0.077530
f 26/77/26 32/142/32 31/107/31
vt 0.179864 0.033643
f 22/73/22 44/143/44 43/136/43
vt 0.218207 0.005700
f 24/75/24 36/144/36 35/115/35
f 10/1/10 45/32/45 13/31/13
f 10/1/10 13/31/13 46/2/46
f 47/5/47 16/44/16 48/43/48
f 47/5/47 48/43/48 19/6/19
f 46/13/46 13/56/13 16/55/16
f 46/13/46 16/55/16 47/14/47
f 45/21/45 10/68/10 19/67/19
f 45/21/45 19/67/19 48/22/48
vt 0.156103 0.505430
vt 0.158689 0.505456
f 50/29/50 58/145/58 59/146/59
f 50/29/50 59/146/59 51/30/51
vt 0.158689 0.531403
vt 0.155633 0.531403
f 52/3/52 60/147/60 57/148/57
f 52/3/52 57/148/57 49/4/49
vt 0.164413 0.505456
vt 0.161827 0.505429
f 54/41/54 62/149/62 63/150/63
f 54/41/54 63/150/63 55/42/55
vt 0.161357 0.531402
vt 0.164413 0.531402
f 56/7/56 64/151/64 61/152/61
f 56/7/56 61/152/61 53/8/53
vt 0.068489 0.000500
vt 0.068489 0.999480
f 51/53/51 59/153/59 62/154/62
f 51/53/51 62/154/62 54/54/54
vt 0.094422 0.999480
vt 0.094422 0.000500
f 53/15/53 61/155/61 60/156/60
f 53/15/53 60/156/60 52/16/52
vt 0.039087 0.000500
vt 0.039087 0.999500
f 49/65/49 57/157/57 64/158/64
f 49/65/49 64/158/64 56/66/56
vt 0.013126 0.999500
vt 0.013126 0.000500
f 55/23/55 63/159/63 58/160/58
f 55/23/55 58/160/58 50/24/50
f 58/145/58 11/28/11 12/27/12
f 58/145/58 12/27/12 59/146/59
f 60/147/60 14/36/14 9/35/9
f 60/147/60 9/35/9 57/148/57
f 62/149/62 17/40/17 18/39/18
f 62/149/62 18/39/18 63/150/63
f 64/151/64 20/48/20 15/47/15
f 64/151/64 15/47/15 61/152/61
f 59/153/59 12/52/12 17/51/17
f 59/153/59 17/51/17 62/154/62
f 61/155/61 15/60/15 14/59/14
f 61/155/61 14/59/14 60/156/60
f 57/157/57 9/64/9 20/63/20
f 57/157/57 20/63/20 64/158/64
f 63/159/63 18/72/18 11/71/11
f 63/159/63 11/71/11 58/160/58
f 65/73/65 66/74/66 67/75/67
f 65/73/65 67/75/67 68/76/68
f 69/77/69 70/78/70 71/79/71
f 69/77/69 71/79/71 72/80/72
f 66/81/66 69/82/69 72/83/72
f 66/81/66 72/83/72 67/84/67
f 68/85/68 71/86/71 70/87/70
f 68/85/68 70/87/70 65/88/65
f 73/89/73 74/90/74 75/91/75
f 73/89/73 75/91/75 76/92/76
f 77/93/77 78/94/78 79/95/79
f 77/93/77 79/95/79 80/96/80
f 81/97/81 82/98/82 83/99/83
f 81/97/81 83/99/83 84/100/84
f 85/101/85 86/102/86 87/103/87
f 85/101/85 87/103/87 88/104/88
f 66/74/66 73/105/73 76/106/76
f 70/78/70 69/77/69 74/107/74
f 70/78/70 74/107/74 85/108/85
f 69/109/69 66/110/66 76/111/76
f 69/109/69 76/111/76 75/112/75
f 72/80/72 77/113/77 80/114/80
f 68/76/68 67/75/67 78/115/78
f 68/76/68 78/115/78 81/116/81
f 67/117/67 72/118/72 80/119/80
f 67/117/67 80/119/80 79/120/79
f 68/76/68 81/116/81 84/121/84
f 77/122/77 82/123/82 81/124/81
f 77/122/77 81/124/81 78/125/78
f 72/80/72 71/79/71 82/126/82
f 72/80/72 82/126/82 77/113/77
f 71/127/71 68/128/68 84/129/84
f 71/127/71 84/129/84 83/130/83
f 70/78/70 85/108/85 88/131/88
f 73/132/73 86/133/86 85/134/85
f 73/132/73 85/134/85 74/135/74
f 66/74/66 65/73/65 86/136/86
f 66/74/66 86/136/86 73/105/73
f 65/137/65 70/138/70 88/139/88
f 65/137/65 88/139/88 87/140/87
f 71/79/71 83/141/83 82/126/82
f 69/77/69 75/142/75 74/107/74
f 65/73/65 87/143/87 86/136/86
f 67/75/67 79/144/79 78/115/78
f 89/73/89 90/74/90 91/75/91
f 89/73/89 91/75/91 92/76/92
f 93/77/93 94/78/94 95/79/95
f 93/77/93 95/79/95 96/80/96
f 90/81/90 93/82/93 96/83/96
f 90/81/90 96/83/96 91/84/91
f 92/85/92 95/86/95 94/87/94
f 92/85/92 94/87/94 89/88/89
f 97/89/97 98/90/98 99/91/99
f 97/89/97 99/91/99 100/92/100
f 101/93/101 102/94/102 103/95/103
f 101/93/101 103/95/103 104/96/104
f 105/97/105 106/98/106 107/99/107
f 105/97/105 107/99/107 108/100/108
f 109/101/109 110/102/110 111/103/111
f 109/101/109 111/103/111 112/104/112
f 90/74/90 97/105/97 100/106/100
f 94/78/94 93/77/93 98/107/98
f 94/78/94 98/107/98 109/108/109
f 93/109/93 90/110/90 100/111/100
f 93/109/93 100/111/100 99/112/99
f 96/80/96 101/113/101 104/114/104
f 92/76/92 91/75/91 102/115/102
f 92/76/92 102/115/102 105/116/105
f 91/117/91 96/118/96 104/119/104
f 91/117/91 104/119/104 103/120/103
f 92/76/92 105/116/105 108/121/108
f 101/122/101 106/123/106 105/124/105
f 101/122/101 105/124/105 102/125/102
f 96/80/96 95/79/95 106/126/106
f 96/80/96 106/126/106 101/113/101
f 95/127/95 92/128/92 108/129/108
f 95/127/95 108/129/108 107/130/107
f 94/78/94 109/108/109 112/131/112
f 97/132/97 110/133/110 109/134/109
f 97/132/97 109/134/109 98/135/98
f 90/74/90 89/73/89 110/136/110
f 90/74/90 110/136/110 97/105/97
f 89/137/89 94/138/94 112/139/112
f 89/137/89 112/139/112 111/140/111
f 95/79/95 107/141/107 106/126/106
f 93/77/93 99/142/99 98/107/98
f 89/73/89 111/143/111 110/136/110
f 91/75/91 103/144/103 102/115/102
# 208 faces, 160 coords texture

# End of File
