####
#
# OBJ File Generated by Meshlab
#
####
# Object aws_TrafficCone_01_visual.obj
#
# Vertices: 39
# Faces: 60
#
####
mtllib ./aws_TrafficCone_01_visual.obj.mtl

vn 2.900903 0.000001 0.341729
v 15.385504 0.243408 2.380123
vn 2.346879 1.705108 0.341729
v 12.447134 9.286780 2.380123
vn 0.896428 2.758923 0.341729
v 4.754381 14.875893 2.380123
vn -0.896429 2.758923 0.341729
v -4.754383 14.875891 2.380123
vn -2.346880 1.705107 0.341729
v -12.447135 9.286779 2.380123
vn -2.900903 -0.000001 0.341729
v -15.385504 0.243407 2.380123
vn -2.346879 -1.705108 0.341729
v -12.447134 -8.799965 2.380123
vn -0.896428 -2.758923 0.341729
v -4.754384 -14.389074 2.380123
vn 0.896429 -2.758922 0.341729
v 4.754384 -14.389074 2.380123
vn 2.346880 -1.705107 0.341729
v 12.447139 -8.799959 2.380123
vn 1.731272 0.000000 2.568928
v 7.522538 0.243408 69.128052
vn 1.400629 1.017617 2.568927
v 6.085862 4.665045 69.128052
vn 0.534992 1.646537 2.568927
v 2.324592 7.397767 69.128052
vn -0.534992 1.646537 2.568928
v -2.324592 7.397766 69.128052
vn -1.400629 1.017617 2.568927
v -6.085862 4.665045 69.128052
vn -1.731272 -0.000001 2.568927
v -7.522538 0.243408 69.128052
vn -1.400628 -1.017616 2.568928
v -6.085860 -4.178229 69.128052
vn -0.534993 -1.646537 2.568927
v -2.324592 -6.910950 69.128052
vn 0.534992 -1.646537 2.568927
v 2.324594 -6.910950 69.128052
vn 1.400628 -1.017616 2.568928
v 6.085863 -4.178226 69.128052
vn -3.975089 0.000000 4.749485
v 5.619600 0.243408 68.003777
vn -3.215915 -2.336498 4.749485
v 4.546353 3.546526 68.003777
vn -1.228370 -3.780535 4.749485
v 1.736552 5.587966 68.003777
vn 1.228371 -3.780535 4.749484
v -1.736552 5.587966 68.003777
vn 3.215915 -2.336498 4.749485
v -4.546353 3.546526 68.003777
vn 3.975089 0.000000 4.749485
v -5.619600 0.243408 68.003777
vn 3.215915 2.336499 4.749484
v -4.546352 -3.059710 68.003777
vn 1.228370 3.780535 4.749484
v -1.736552 -5.101150 68.003777
vn -1.228371 3.780535 4.749485
v 1.736553 -5.101150 68.003777
vn -3.215916 2.336498 4.749485
v 4.546354 -3.059708 68.003777
vn 0.000000 0.000000 2.214221
v 0.000000 0.243408 60.636837
vn -1.570796 -1.570796 0.000000
v -24.326925 -23.672588 -0.000001
vn 1.570796 -1.570796 0.000000
v 24.326925 -23.672588 -0.000001
vn -1.570796 1.570796 0.000000
v -24.326925 24.159405 -0.000001
vn 1.570796 1.570796 0.000000
v 24.326925 24.159405 -0.000001
vn -1.570796 -1.570796 1.570796
v -24.326925 -23.672588 4.171052
vn 1.570796 -1.570796 1.570796
v 24.326925 -23.672588 4.171052
vn -1.570796 1.570796 1.570796
v -24.326925 24.159405 4.171052
vn 1.570796 1.570796 1.570796
v 24.326925 24.159405 4.171052
# 39 vertices, 0 vertices normals


usemtl material_0
vt 0.401701 0.313666
vt 0.088546 0.313666
vt 0.088546 0.020533
f 36/1/36 37/2/37 39/3/39
vt 0.401701 0.020533
f 36/1/36 39/3/39 38/4/38
vt 0.653296 0.250117
vt 0.200007 0.250117
vt 0.200007 0.211257
f 32/5/32 33/6/33 37/7/37
vt 0.653296 0.211257
f 32/5/32 37/7/37 36/8/36
vt 0.854538 0.170294
vt 0.408907 0.170294
vt 0.408907 0.131434
f 33/9/33 35/10/35 39/11/39
vt 0.854538 0.131434
f 33/9/33 39/11/39 37/12/37
vt 0.868594 0.110901
vt 0.415305 0.110901
vt 0.415305 0.072041
f 35/13/35 34/14/34 38/15/38
vt 0.868594 0.072041
f 35/13/35 38/15/38 39/16/39
vt 0.455841 0.293612
vt 0.010210 0.293612
vt 0.010210 0.254752
f 34/17/34 32/18/32 36/19/36
vt 0.455841 0.254752
f 34/17/34 36/19/36 38/20/38
vt 0.059448 0.340711
vt 0.156480 0.340711
vt 0.156480 0.989596
f 1/21/1 2/22/2 12/23/12
vt 0.059448 0.989596
f 1/21/1 12/23/12 11/24/11
vt 0.253512 0.340711
vt 0.253512 0.989596
f 2/22/2 3/25/3 13/26/13
f 2/22/2 13/26/13 12/23/12
vt 0.350545 0.340711
vt 0.350545 0.989596
f 3/25/3 4/27/4 14/28/14
f 3/25/3 14/28/14 13/26/13
vt 0.447577 0.340711
vt 0.447577 0.989596
f 4/27/4 5/29/5 15/30/15
f 4/27/4 15/30/15 14/28/14
vt 0.544609 0.340711
vt 0.544609 0.989596
f 5/29/5 6/31/6 16/32/16
f 5/29/5 16/32/16 15/30/15
vt 0.641640 0.340711
vt 0.641640 0.989596
f 6/31/6 7/33/7 17/34/17
f 6/31/6 17/34/17 16/32/16
vt 0.738673 0.340711
vt 0.738673 0.989596
f 7/33/7 8/35/8 18/36/18
f 7/33/7 18/36/18 17/34/17
vt 0.835705 0.340711
vt 0.835705 0.989596
f 8/35/8 9/37/9 19/38/19
f 8/35/8 19/38/19 18/36/18
vt 0.932736 0.340711
vt 0.932736 0.989596
f 9/37/9 10/39/10 20/40/20
f 9/37/9 20/40/20 19/38/19
vt 0.996463 0.340711
vt 0.996463 0.989596
f 10/39/10 1/41/1 11/42/11
f 10/39/10 11/42/11 20/40/20
vt 0.687898 0.922482
vt 0.641633 0.921960
vt 0.647688 0.904017
f 11/43/11 12/44/12 22/45/22
vt 0.682249 0.904406
f 11/43/11 22/45/22 21/46/21
vt 0.604511 0.894345
vt 0.619956 0.883387
f 12/44/12 13/47/13 23/48/23
f 12/44/12 23/48/23 22/45/22
vt 0.590710 0.850183
vt 0.609646 0.850396
f 13/47/13 14/49/14 24/50/24
f 13/47/13 24/50/24 23/48/23
vt 0.605503 0.806344
vt 0.620697 0.817647
f 14/49/14 15/51/15 25/52/25
f 14/49/14 25/52/25 24/50/24
vt 0.643238 0.779572
vt 0.648887 0.797647
f 15/51/15 16/53/16 26/54/26
f 15/51/15 26/54/26 25/52/25
vt 0.689503 0.780094
vt 0.683448 0.798037
f 16/53/16 17/55/17 27/56/27
f 16/53/16 27/56/27 26/54/26
vt 0.726625 0.807709
vt 0.711180 0.818667
f 17/55/17 18/57/18 28/58/28
f 17/55/17 28/58/28 27/56/27
vt 0.740426 0.851871
vt 0.721490 0.851658
f 18/57/18 19/59/19 29/60/29
f 18/57/18 29/60/29 28/58/28
vt 0.725634 0.895710
vt 0.710439 0.884407
f 19/59/19 20/61/20 30/62/30
f 19/59/19 30/62/30 29/60/29
f 20/61/20 11/43/11 21/46/21
f 20/61/20 21/46/21 30/62/30
vt 0.665568 0.851027
f 21/46/21 22/45/22 31/63/31
f 22/45/22 23/48/23 31/63/31
f 23/48/23 24/50/24 31/63/31
f 24/50/24 25/52/25 31/63/31
f 25/52/25 26/54/26 31/63/31
f 26/54/26 27/56/27 31/63/31
f 27/56/27 28/58/28 31/63/31
f 28/58/28 29/60/29 31/63/31
f 29/60/29 30/62/30 31/63/31
f 30/62/30 21/46/21 31/63/31
# 60 faces, 63 coords texture

# End of File
