####
#
# OBJ File Generated by Meshlab
#
####
# Object aws_Fence_02_collision.obj
#
# Vertices: 40
# Faces: 120
#
####
mtllib ./aws_Fence_02_collision.obj.mtl

vn -3.141592 -3.141593 -3.141596
v -1.885500 -109.960434 24.254400
vn -3.141593 3.141594 -3.141593
v -1.885500 112.845367 24.254400
vn 3.141592 3.141593 -3.141596
v 4.744200 112.845367 24.254400
vn 3.141593 -3.141594 -3.141593
v 4.744200 -109.960434 24.254400
vn -3.141593 -3.141594 3.141596
v -1.885500 -109.960434 122.606201
vn 3.141592 -3.141593 3.141593
v 4.744200 -109.960434 122.606201
vn 3.141593 3.141594 3.141596
v 4.744200 112.845367 122.606201
vn -3.141592 3.141593 3.141593
v -1.885500 112.845367 122.606201
vn -4.442883 -3.141592 0.000000
v -31.377800 -110.371239 1.524400
vn -4.442883 3.141593 0.000000
v -31.377800 -101.160637 1.524400
vn 0.000000 3.141594 -4.442883
v -26.689899 -101.160637 -3.163500
vn 0.000001 -3.141593 -4.442883
v -26.689899 -110.371239 -3.163500
vn 0.000000 -3.141593 4.442883
v 0.579100 -110.371239 33.481300
vn 4.442883 -3.141592 -0.000000
v 5.267000 -110.371239 28.793400
vn 4.442884 3.141593 -0.000001
v 5.267000 -101.160637 28.793400
vn -0.000001 3.141593 4.442883
v 0.579100 -101.160637 33.481300
vn 4.340613 -3.141590 -0.947766
v 29.079700 -110.371239 0.654200
vn -0.947768 -3.141596 -4.340619
v 23.499599 -110.371239 -2.925800
vn -0.947768 3.141596 -4.340619
v 23.499599 -101.160637 -2.925800
vn 4.340613 3.141590 -0.947766
v 29.079700 -101.160637 0.654200
vn 0.947767 -3.141595 4.340619
v 4.675500 -110.371239 38.692600
vn 0.947767 3.141595 4.340619
v 4.675500 -101.160637 38.692600
vn -4.340614 3.141590 0.947766
v -0.904600 -101.160637 35.112598
vn -4.340613 -3.141591 0.947766
v -0.904600 -110.371239 35.112598
vn -4.442860 -3.141572 -0.000023
v -32.147598 101.278168 4.248900
vn -4.442860 3.141572 -0.000023
v -32.147598 110.488663 4.248900
vn 0.000023 3.141613 -4.442906
v -27.459600 110.488663 -0.439000
vn 0.000023 -3.141613 -4.442906
v -27.459600 101.278168 -0.439000
vn -0.000024 -3.141614 4.442907
v -0.190700 101.278168 36.205799
vn 4.442859 -3.141571 0.000024
v 4.497300 101.278168 31.517899
vn 4.442860 3.141571 0.000024
v 4.497300 110.488663 31.517899
vn -0.000023 3.141614 4.442907
v -0.190700 110.488663 36.205799
vn 4.442071 -3.141585 -0.084433
v 32.147598 104.731461 3.903200
vn -0.084433 -3.141600 -4.442089
v 27.371401 104.731461 -0.694800
vn -0.084433 3.141600 -4.442089
v 27.371401 113.942062 -0.694800
vn 4.442072 3.141585 -0.084433
v 32.147598 113.942062 3.903200
vn 0.084434 -3.141600 4.442090
v 0.803700 104.731461 36.461601
vn 0.084433 3.141600 4.442089
v 0.803700 113.942062 36.461601
vn -4.442071 3.141584 0.084433
v -3.972500 113.942062 31.863602
vn -4.442071 -3.141584 0.084434
v -3.972500 104.731461 31.863602
# 40 vertices, 0 vertices normals


usemtl material_0
vt 0.000000 0.000000
f 3/1/3 4/1/4 1/1/1
f 1/1/1 2/1/2 3/1/3
f 7/1/7 8/1/8 5/1/5
f 5/1/5 6/1/6 7/1/7
f 4/1/4 6/1/6 5/1/5
f 5/1/5 1/1/1 4/1/4
f 6/1/6 4/1/4 3/1/3
f 3/1/3 7/1/7 6/1/6
f 2/1/2 8/1/8 7/1/7
f 7/1/7 3/1/3 2/1/2
f 8/1/8 2/1/2 1/1/1
f 1/1/1 5/1/5 8/1/8
f 10/1/10 11/1/11 12/1/12
f 12/1/12 9/1/9 10/1/10
f 14/1/14 15/1/15 16/1/16
f 16/1/16 13/1/13 14/1/14
f 14/1/14 13/1/13 9/1/9
f 9/1/9 12/1/12 14/1/14
f 15/1/15 14/1/14 12/1/12
f 12/1/12 11/1/11 15/1/15
f 16/1/16 15/1/15 11/1/11
f 11/1/11 10/1/10 16/1/16
f 16/1/16 10/1/10 9/1/9
f 9/1/9 13/1/13 16/1/16
f 20/1/20 17/1/17 18/1/18
f 18/1/18 19/1/19 20/1/20
f 22/1/22 23/1/23 24/1/24
f 24/1/24 21/1/21 22/1/22
f 17/1/17 21/1/21 24/1/24
f 24/1/24 18/1/18 17/1/17
f 19/1/19 18/1/18 24/1/24
f 24/1/24 23/1/23 19/1/19
f 22/1/22 20/1/20 19/1/19
f 19/1/19 23/1/23 22/1/22
f 21/1/21 17/1/17 20/1/20
f 20/1/20 22/1/22 21/1/21
f 26/1/26 27/1/27 28/1/28
f 28/1/28 25/1/25 26/1/26
f 32/1/32 29/1/29 30/1/30
f 30/1/30 31/1/31 32/1/32
f 29/1/29 25/1/25 28/1/28
f 28/1/28 30/1/30 29/1/29
f 27/1/27 31/1/31 30/1/30
f 30/1/30 28/1/28 27/1/27
f 27/1/27 26/1/26 32/1/32
f 32/1/32 31/1/31 27/1/27
f 26/1/26 25/1/25 29/1/29
f 29/1/29 32/1/32 26/1/26
f 35/1/35 36/1/36 33/1/33
f 33/1/33 34/1/34 35/1/35
f 39/1/39 40/1/40 37/1/37
f 37/1/37 38/1/38 39/1/39
f 34/1/34 33/1/33 37/1/37
f 37/1/37 40/1/40 34/1/34
f 40/1/40 39/1/39 35/1/35
f 35/1/35 34/1/34 40/1/40
f 35/1/35 39/1/39 38/1/38
f 38/1/38 36/1/36 35/1/35
f 38/1/38 37/1/37 33/1/33
f 33/1/33 36/1/36 38/1/38
vt 0.000000 1.000000
vt 1.000000 0.000000
f 3/2/3 4/1/4 1/3/1
vt 1.000000 1.000000
f 1/3/1 2/4/2 3/2/3
f 7/4/7 8/2/8 5/1/5
f 5/1/5 6/3/6 7/4/7
f 4/3/4 6/4/6 5/2/5
f 5/2/5 1/1/1 4/3/4
f 6/2/6 4/1/4 3/3/3
f 3/3/3 7/4/7 6/2/6
f 2/3/2 8/4/8 7/2/7
f 7/2/7 3/1/3 2/3/2
f 8/2/8 2/1/2 1/3/1
f 1/3/1 5/4/5 8/2/8
f 10/4/10 11/2/11 12/1/12
f 12/1/12 9/3/9 10/4/10
f 14/3/14 15/4/15 16/2/16
f 16/2/16 13/1/13 14/3/14
f 14/4/14 13/2/13 9/1/9
f 9/1/9 12/3/12 14/4/14
f 15/4/15 14/2/14 12/1/12
f 12/1/12 11/3/11 15/4/15
f 16/4/16 15/2/15 11/1/11
f 11/1/11 10/3/10 16/4/16
f 16/2/16 10/1/10 9/3/9
f 9/3/9 13/4/13 16/2/16
f 20/4/20 17/3/17 18/1/18
f 18/1/18 19/2/19 20/4/20
f 22/2/22 23/4/23 24/3/24
f 24/3/24 21/1/21 22/2/22
f 17/1/17 21/2/21 24/4/24
f 24/4/24 18/3/18 17/1/17
f 19/3/19 18/1/18 24/2/24
f 24/2/24 23/4/23 19/3/19
f 22/4/22 20/3/20 19/1/19
f 19/1/19 23/2/23 22/4/22
f 21/4/21 17/3/17 20/1/20
f 20/1/20 22/2/22 21/4/21
f 26/4/26 27/2/27 28/1/28
f 28/1/28 25/3/25 26/4/26
f 32/2/32 29/1/29 30/3/30
f 30/3/30 31/4/31 32/2/32
f 29/2/29 25/1/25 28/3/28
f 28/3/28 30/4/30 29/2/29
f 27/3/27 31/4/31 30/2/30
f 30/2/30 28/1/28 27/3/27
f 27/1/27 26/3/26 32/4/32
f 32/4/32 31/2/31 27/1/27
f 26/1/26 25/3/25 29/4/29
f 29/4/29 32/2/32 26/1/26
f 35/2/35 36/4/36 33/3/33
f 33/3/33 34/1/34 35/2/35
f 39/4/39 40/3/40 37/1/37
f 37/1/37 38/2/38 39/4/39
f 34/3/34 33/1/33 37/2/37
f 37/2/37 40/4/40 34/3/34
f 40/2/40 39/4/39 35/3/35
f 35/3/35 34/1/34 40/2/40
f 35/1/35 39/2/39 38/4/38
f 38/4/38 36/3/36 35/1/35
f 38/2/38 37/4/37 33/3/33
f 33/3/33 36/1/36 38/2/38
# 120 faces, 4 coords texture

# End of File
